<?xml version="1.0" encoding="UTF-8"?>
<svg xmlns="http://www.w3.org/2000/svg" xmlns:xlink="http://www.w3.org/1999/xlink" width="128pt" height="128pt" viewBox="0 0 128 128" version="1.1">
<g id="surface1">
<path style=" stroke:none;fill-rule:nonzero;fill:rgb(96.078431%,85.490196%,33.333333%);fill-opacity:1;" d="M 0 0 L 128 0 L 128 128 L 0 128 L 0 0 M 88.945312 28.929688 C 86.140625 30.839844 82.714844 31.765625 80.226562 34.109375 L 81.460938 34.351562 C 81.242188 34.742188 81.015625 35.132812 80.789062 35.519531 C 80.757812 35.8125 80.6875 36.398438 80.660156 36.695312 C 80.175781 37.160156 79.695312 37.632812 79.210938 38.101562 C 79.507812 38.125 80.101562 38.179688 80.394531 38.203125 C 80.507812 42.992188 79.632812 47.714844 79.265625 52.46875 C 79.007812 56.550781 78.75 60.632812 78.660156 64.714844 C 78.132812 65.375 77.605469 66.03125 77.09375 66.699219 C 77.394531 66.714844 78 66.742188 78.300781 66.757812 C 78.4375 67.3125 78.574219 67.867188 78.71875 68.425781 C 79.546875 68.226562 80.367188 68.015625 81.179688 67.785156 C 81.3125 68.382812 81.445312 68.976562 81.578125 69.570312 C 81.867188 69.023438 82.425781 67.929688 82.703125 67.382812 C 82.730469 69.46875 82.484375 71.5625 82.824219 73.640625 C 83.257812 71.289062 82.914062 68.875 83.273438 66.507812 C 86.648438 65.070312 89.835938 63.226562 93.210938 61.789062 C 94.75 61.15625 96.242188 60.421875 97.703125 59.609375 C 97.757812 59.339844 97.867188 58.789062 97.921875 58.519531 C 99.171875 57.949219 100.449219 57.390625 101.484375 56.464844 C 101.757812 56.234375 102.300781 55.773438 102.570312 55.546875 C 102.804688 56.300781 103.054688 57.054688 103.304688 57.8125 C 106.519531 56.382812 109.601562 54.6875 112.882812 53.414062 L 112.699219 54.429688 C 115.25 53.726562 117.40625 52.160156 119.703125 50.914062 C 119.699219 50.796875 119.6875 50.554688 119.6875 50.4375 C 122.382812 49.484375 124.921875 48.035156 126.925781 45.96875 C 126.296875 45.839844 125.671875 45.703125 125.046875 45.574219 L 125.300781 46.5 C 124.710938 46.273438 124.125 46.054688 123.546875 45.824219 C 122.945312 46.140625 122.339844 46.4375 121.730469 46.726562 C 122.382812 45.921875 123.210938 45.296875 123.992188 44.625 C 122.644531 45.269531 121.3125 45.953125 119.949219 46.5625 C 120.859375 46.53125 121.632812 46.6875 121.351562 47.773438 C 120.382812 47.742188 119.3125 48.039062 118.453125 47.414062 C 119 47.324219 120.085938 47.148438 120.632812 47.0625 C 119.824219 46.507812 118.96875 46.960938 118.15625 47.144531 L 118.285156 47.59375 C 113.796875 49.242188 109.800781 52.164062 105.1875 53.484375 C 105.507812 50.328125 105.132812 47.164062 105.425781 44.007812 C 106.007812 42.570312 105.820312 40.992188 105.867188 39.480469 C 105.851562 35.199219 105.960938 30.914062 105.75 26.640625 C 104.882812 26.6875 104.03125 26.839844 103.34375 27.421875 C 103.398438 26.203125 103.367188 24.953125 103.867188 23.820312 C 104.429688 24.117188 104.664062 24.730469 104.984375 25.242188 C 105.242188 25.242188 105.765625 25.242188 106.03125 25.242188 C 105.476562 24.546875 104.945312 23.828125 104.398438 23.132812 C 103.898438 23.230469 103.40625 23.328125 102.910156 23.429688 C 102.71875 23.234375 102.34375 22.851562 102.15625 22.65625 C 97.835938 24.914062 93.269531 26.671875 88.945312 28.929688 M 67.523438 38.980469 C 63.90625 39.90625 60.90625 42.25 58.078125 44.59375 C 56.46875 45.921875 55.40625 47.75 54.0625 49.328125 L 55.285156 49.054688 C 54.398438 50.453125 53.523438 51.859375 52.695312 53.296875 C 52.476562 53.339844 52.035156 53.425781 51.8125 53.46875 C 51.75 52.8125 51.679688 52.15625 51.601562 51.5 C 51.234375 49.757812 50.96875 47.992188 50.617188 46.25 C 50.15625 46.074219 49.695312 45.898438 49.234375 45.726562 C 49.132812 45.570312 48.921875 45.257812 48.8125 45.105469 C 48.269531 47.089844 47.6875 49.0625 47.039062 51.023438 C 45.78125 55.046875 44.398438 59.023438 43.046875 63.015625 C 42.140625 65.460938 41.796875 68.355469 39.523438 69.984375 C 38.898438 70.789062 38.09375 71.421875 37.226562 71.9375 C 36.351562 72.46875 35.425781 72.914062 34.492188 73.335938 C 33.421875 72.609375 32.320312 71.9375 31.210938 71.28125 C 30.507812 71.828125 29.644531 71.800781 28.804688 71.703125 C 30.203125 71.078125 30.054688 69.4375 30.898438 68.375 C 32.09375 66.507812 33.257812 64.585938 34.132812 62.539062 C 34.617188 59.367188 34.09375 55.523438 31.160156 53.660156 C 30.730469 54.019531 30.3125 54.398438 29.898438 54.78125 C 28.351562 54.699219 26.789062 54.671875 25.257812 54.414062 C 26.742188 53.882812 28.304688 53.59375 29.882812 53.78125 C 29.730469 53.570312 29.421875 53.148438 29.265625 52.9375 C 27.453125 53.300781 25.585938 52.492188 23.78125 53.089844 C 18.339844 53.898438 13.9375 57.425781 9.796875 60.773438 C 7.660156 62.367188 6.375 64.742188 4.699219 66.757812 L 5.9375 66.820312 C 4.824219 68.5625 3.742188 70.320312 2.59375 72.035156 C 2.105469 72.5625 1.742188 73.164062 1.515625 73.851562 C 3.203125 74.234375 3.601562 72.46875 4.390625 71.4375 C 4.671875 71.390625 5.234375 71.300781 5.515625 71.257812 C 7.382812 69.101562 8.96875 66.660156 11.28125 64.914062 C 11.460938 69.484375 11.375 74.0625 11.117188 78.625 C 10.980469 77.800781 10.910156 76.960938 10.734375 76.140625 C 11.015625 79.289062 10.765625 82.449219 10.640625 85.605469 C 10.070312 87.855469 10.382812 90.199219 9.953125 92.464844 C 9.730469 93.828125 9.664062 95.214844 9.589844 96.59375 C 9.03125 100.15625 8.5625 103.726562 8.035156 107.289062 C 8.570312 106.894531 9.09375 106.492188 9.617188 106.078125 L 10.015625 106.414062 C 10.0625 106.078125 10.160156 105.421875 10.203125 105.089844 C 10.054688 104.964844 9.757812 104.710938 9.605469 104.585938 C 10.234375 104.1875 10.867188 103.796875 11.515625 103.429688 C 11.269531 105.835938 10.65625 108.304688 11.007812 110.695312 C 12 108.882812 12.320312 106.8125 12.734375 104.8125 C 14.992188 103.242188 17.164062 101.539062 19.09375 99.574219 C 20.726562 97.800781 23.320312 97.117188 24.523438 94.921875 C 27.109375 92.589844 28.515625 89.324219 30.625 86.617188 C 32.390625 84.351562 33.648438 81.757812 34.617188 79.0625 C 34.6875 77.820312 34.890625 76.460938 36.1875 75.921875 C 36.179688 75.773438 36.171875 75.484375 36.160156 75.339844 C 37.109375 75.296875 37.992188 74.949219 38.867188 74.617188 C 38.492188 77.429688 37.6875 80.15625 37.1875 82.945312 C 36.84375 84.976562 35.96875 86.925781 36.132812 89.019531 C 36.539062 89.523438 36.949219 90.035156 37.359375 90.546875 C 37.414062 90.1875 37.523438 89.480469 37.578125 89.125 C 37.894531 89.359375 38.203125 89.59375 38.515625 89.828125 C 38.785156 88.714844 39.125 87.617188 39.476562 86.523438 C 40.882812 81.867188 42.0625 77.15625 43.382812 72.480469 C 43.839844 71.1875 44.78125 70.203125 45.824219 69.367188 C 46.605469 68.910156 47.367188 68.410156 48.070312 67.839844 C 48.476562 67.742188 48.875 67.640625 49.285156 67.539062 C 49.929688 70.546875 49.769531 73.625 50.046875 76.664062 C 50.40625 81.367188 50.535156 86.085938 50.796875 90.796875 C 51.175781 90.820312 51.9375 90.875 52.320312 90.898438 C 52.3125 87.882812 52.390625 84.859375 52.101562 81.855469 C 52.035156 81.640625 51.90625 81.210938 51.839844 80.992188 C 52.046875 80.914062 52.460938 80.742188 52.664062 80.660156 C 52.742188 83.773438 53.046875 86.882812 53.25 89.992188 C 53.089844 90.519531 53.632812 90.65625 53.949219 90.859375 L 53.773438 90.046875 C 53.8125 81.675781 53.820312 73.265625 52.914062 64.9375 C 53.175781 64.230469 53.4375 63.523438 53.710938 62.824219 C 53.410156 62.4375 53.117188 62.050781 52.820312 61.660156 C 52.53125 59.28125 52.175781 56.90625 52.140625 54.507812 C 54.828125 52.765625 56.695312 50.101562 58.96875 47.882812 C 59.195312 47.882812 59.640625 47.867188 59.859375 47.867188 C 59.6875 47.976562 59.335938 48.1875 59.160156 48.296875 C 59.570312 51.382812 59.117188 54.492188 59.140625 57.59375 C 58.539062 65.007812 58.160156 72.46875 56.796875 79.804688 C 57.175781 79.578125 57.929688 79.140625 58.304688 78.914062 C 58.300781 78.359375 58.296875 77.8125 58.289062 77.257812 C 58.882812 77.269531 59.476562 77.285156 60.070312 77.3125 C 59.734375 77.570312 59.0625 78.09375 58.730469 78.355469 C 59.429688 79.65625 59.007812 81.132812 58.859375 82.507812 C 59.765625 81.144531 60.160156 79.546875 60.410156 77.953125 C 61.039062 77.535156 61.675781 77.125 62.3125 76.71875 C 61.824219 76.71875 60.851562 76.726562 60.367188 76.726562 C 60.6875 76.285156 60.976562 75.824219 61.242188 75.351562 C 61.230469 75.117188 61.203125 74.640625 61.195312 74.40625 C 61.273438 76.195312 62.394531 74.6875 63.074219 74.484375 C 63.203125 73.09375 64.765625 72.789062 65.546875 71.839844 C 65.75 71.828125 66.15625 71.804688 66.355469 71.796875 C 66.304688 71.507812 66.203125 70.9375 66.15625 70.648438 C 66.355469 70.6875 66.75 70.75 66.949219 70.785156 C 68.390625 69.203125 69.726562 67.539062 71.089844 65.894531 C 70.71875 67.8125 68.9375 68.890625 67.882812 70.398438 C 65.8125 72.445312 63.601562 74.355469 61.675781 76.554688 C 63.769531 75.851562 64.960938 73.859375 66.78125 72.730469 C 69.453125 71.078125 71.140625 68.339844 72.859375 65.796875 C 74.984375 62.726562 77.617188 59.4375 77.335938 55.480469 C 77.195312 53.664062 75.175781 53.054688 73.921875 52.132812 C 73.703125 52.398438 73.28125 52.925781 73.070312 53.1875 C 73.449219 50.695312 75.289062 48.84375 76.367188 46.65625 C 77.148438 45.414062 76.742188 43.894531 76.695312 42.53125 C 76.492188 41.992188 76.320312 41.4375 76.171875 40.882812 C 75.5 40.117188 74.699219 39.480469 73.855469 38.921875 C 73.8125 39.160156 73.730469 39.640625 73.6875 39.882812 C 72.671875 39.851562 71.648438 39.8125 70.632812 39.71875 C 71.460938 39.382812 72.3125 39.109375 73.132812 38.785156 C 71.269531 38.617188 69.367188 38.523438 67.523438 38.980469 Z M 67.523438 38.980469 "/>
<path style=" stroke:none;fill-rule:nonzero;fill:rgb(96.078431%,85.490196%,33.333333%);fill-opacity:1;" d="M 99.714844 26.335938 C 100.824219 25.882812 101.90625 25.351562 103.015625 24.898438 C 102.671875 25.984375 102.0625 27.085938 102.570312 28.226562 C 103.195312 31.3125 102.117188 34.382812 102.273438 37.484375 C 102.421875 40.65625 101.6875 43.839844 102.300781 46.976562 C 102.6875 49.648438 101.664062 52.492188 102.8125 55.019531 C 102.070312 55.117188 101.453125 55.507812 100.921875 56 C 99.089844 56.710938 97.289062 57.515625 95.40625 58.074219 C 96.3125 57.367188 97.257812 56.710938 98.144531 55.976562 C 92.890625 57.03125 88.425781 60.226562 83.367188 61.84375 C 83.273438 58.570312 83.742188 55.3125 83.820312 52.039062 C 83.84375 50.578125 85.285156 50.007812 86.410156 49.484375 C 88.132812 48.742188 89.53125 47.421875 91.242188 46.632812 C 93.265625 45.65625 95.382812 44.8125 97.164062 43.394531 C 96.703125 43.3125 95.785156 43.15625 95.324219 43.074219 C 95.589844 42.148438 96.320312 41.757812 97.199219 41.632812 C 96.914062 41.296875 96.609375 40.96875 96.285156 40.664062 C 96.320312 40.789062 96.382812 41.03125 96.414062 41.148438 C 94.070312 41.269531 92.0625 42.625 89.890625 43.375 C 88.144531 44.132812 86.355469 44.789062 84.539062 45.367188 C 84.589844 43.78125 84.6875 42.195312 84.789062 40.617188 C 85.105469 40.617188 85.734375 40.617188 86.050781 40.625 C 85.6875 40.519531 84.964844 40.3125 84.601562 40.210938 C 84.800781 39.90625 85.1875 39.300781 85.390625 38.992188 C 85.882812 38.054688 86.074219 36.992188 86.324219 35.96875 C 88.046875 34.578125 89.8125 33.214844 91.894531 32.40625 C 92.675781 31.964844 93.449219 31.507812 94.230469 31.0625 L 94.242188 30.605469 C 94.429688 30.617188 94.800781 30.644531 94.992188 30.660156 C 95.574219 30.429688 96.164062 30.203125 96.757812 29.976562 C 96.730469 29.714844 96.679688 29.1875 96.65625 28.925781 C 96.960938 29.0625 97.570312 29.339844 97.875 29.476562 C 97.800781 29.257812 97.660156 28.8125 97.589844 28.59375 C 98.351562 28.285156 99.101562 27.960938 99.859375 27.640625 C 99.824219 27.3125 99.75 26.660156 99.714844 26.335938 Z M 99.714844 26.335938 "/>
<path style=" stroke:none;fill-rule:nonzero;fill:rgb(96.078431%,85.490196%,33.333333%);fill-opacity:1;" d="M 67.839844 42.5625 C 69.367188 41.773438 71.132812 42.300781 72.757812 42.289062 C 72.796875 43.117188 72.804688 43.980469 72.425781 44.742188 C 71.851562 46.882812 70.804688 48.84375 69.675781 50.734375 C 68.71875 52.394531 67 53.355469 65.6875 54.6875 C 64.9375 55.304688 64.304688 56.242188 63.257812 56.335938 C 63.351562 56.765625 64.296875 58.289062 63.25 57.84375 C 62.859375 53.4375 63.269531 48.945312 63.742188 44.535156 C 65.039062 43.742188 66.476562 43.21875 67.839844 42.5625 Z M 67.839844 42.5625 "/>
<path style=" stroke:none;fill-rule:nonzero;fill:rgb(96.078431%,85.490196%,33.333333%);fill-opacity:1;" d="M 62.328125 61.6875 C 65.019531 60.117188 67.171875 57.78125 69.914062 56.289062 C 70.914062 56.273438 71.914062 56.269531 72.921875 56.285156 C 72.914062 57.355469 72.96875 58.429688 72.800781 59.492188 C 69.980469 64.949219 65.867188 69.632812 61.234375 73.632812 C 61.3125 69.625 62.0625 65.679688 62.328125 61.6875 Z M 62.328125 61.6875 "/>
<path style=" stroke:none;fill-rule:nonzero;fill:rgb(96.078431%,85.490196%,33.333333%);fill-opacity:1;" d="M 19.980469 59.617188 C 22.117188 58.367188 24.820312 56.769531 27.210938 58.367188 C 27.210938 58.117188 27.214844 57.605469 27.214844 57.34375 C 28.75 57.824219 29.5 59.164062 29.125 60.71875 C 28.925781 60.699219 28.53125 60.660156 28.335938 60.640625 C 28.34375 62.1875 27.875 63.6875 27.09375 65.007812 C 25.796875 67.203125 24.914062 69.769531 22.890625 71.4375 C 21.023438 72.9375 19.289062 74.59375 17.5625 76.25 C 17.230469 76.320312 16.574219 76.460938 16.25 76.53125 C 15.867188 71.8125 16.75 67.144531 16.8125 62.4375 C 16.625 60.6875 18.394531 59.535156 19.980469 59.617188 Z M 19.980469 59.617188 "/>
<path style=" stroke:none;fill-rule:nonzero;fill:rgb(96.078431%,85.490196%,33.333333%);fill-opacity:1;" d="M 47.9375 58.226562 C 48.144531 58.195312 48.570312 58.140625 48.78125 58.117188 C 48.980469 60.179688 49.257812 62.257812 48.605469 64.28125 C 48.394531 64.226562 47.980469 64.109375 47.769531 64.050781 L 47.730469 64.875 C 47.5 64.800781 47.046875 64.648438 46.820312 64.578125 C 46.699219 64.945312 46.464844 65.679688 46.351562 66.050781 C 46.230469 64.476562 46.484375 62.914062 47.035156 61.445312 C 47.375 60.382812 47.6875 59.3125 47.9375 58.226562 Z M 47.9375 58.226562 "/>
<path style=" stroke:none;fill-rule:nonzero;fill:rgb(96.078431%,85.490196%,33.333333%);fill-opacity:1;" d="M 27.550781 76.265625 C 27.632812 75.6875 27.734375 75.105469 27.851562 74.535156 C 29.414062 76.410156 29.851562 79.039062 28.648438 81.226562 C 26.476562 84.78125 24.3125 88.394531 21.449219 91.449219 C 18.96875 94.09375 16.765625 97.074219 13.695312 99.089844 C 13.84375 93.789062 14.6875 88.519531 15.359375 83.257812 C 17.632812 81.960938 19.714844 80.375 21.6875 78.671875 C 23.285156 77.242188 25.328125 76.046875 27.550781 76.265625 Z M 27.550781 76.265625 "/>
<path style=" stroke:none;fill-rule:nonzero;fill:rgb(96.078431%,85.490196%,33.333333%);fill-opacity:1;" d="M 19.394531 97.398438 C 21.882812 94.625 24.476562 91.945312 26.734375 88.96875 C 26.867188 90.394531 25.617188 91.3125 24.8125 92.3125 C 23.125 94.117188 21.804688 96.4375 19.394531 97.398438 Z M 19.394531 97.398438 "/>
<path style=" stroke:none;fill-rule:nonzero;fill:rgb(96.078431%,85.490196%,33.333333%);fill-opacity:1;" d="M 16.4375 99.195312 C 16.828125 98.757812 17.21875 98.320312 17.617188 97.882812 C 17.714844 98.269531 17.921875 99.039062 18.023438 99.425781 C 16.589844 100.660156 15.4375 102.242188 13.851562 103.289062 C 13.53125 103.289062 12.890625 103.289062 12.5625 103.289062 C 12.9375 102.632812 13.300781 101.953125 13.898438 101.480469 C 13.480469 101.132812 13.0625 100.78125 12.632812 100.4375 C 13.050781 100.285156 13.875 99.984375 14.289062 99.835938 C 14.226562 100.398438 14.171875 100.976562 14.28125 101.546875 C 15.25 100.992188 16.335938 100.425781 16.4375 99.195312 Z M 16.4375 99.195312 "/>
<path style=" stroke:none;fill-rule:nonzero;fill:rgb(0%,0%,0%);fill-opacity:1;" d="M 88.945312 28.929688 C 93.269531 26.671875 97.835938 24.914062 102.15625 22.65625 C 102.34375 22.851562 102.71875 23.234375 102.910156 23.429688 C 103.40625 23.328125 103.898438 23.230469 104.398438 23.132812 C 104.945312 23.828125 105.476562 24.546875 106.03125 25.242188 C 105.765625 25.242188 105.242188 25.242188 104.984375 25.242188 C 104.664062 24.730469 104.429688 24.117188 103.867188 23.820312 C 103.367188 24.953125 103.398438 26.203125 103.34375 27.421875 C 104.03125 26.839844 104.882812 26.6875 105.75 26.640625 C 105.960938 30.914062 105.851562 35.199219 105.867188 39.480469 C 105.820312 40.992188 106.007812 42.570312 105.425781 44.007812 C 105.132812 47.164062 105.507812 50.328125 105.1875 53.484375 C 109.800781 52.164062 113.796875 49.242188 118.285156 47.59375 L 118.15625 47.144531 C 118.96875 46.960938 119.824219 46.507812 120.632812 47.0625 C 120.085938 47.148438 119 47.324219 118.453125 47.414062 C 119.3125 48.039062 120.382812 47.742188 121.351562 47.773438 C 121.632812 46.6875 120.859375 46.53125 119.949219 46.5625 C 121.3125 45.953125 122.644531 45.269531 123.992188 44.625 C 123.210938 45.296875 122.382812 45.921875 121.730469 46.726562 C 122.339844 46.4375 122.945312 46.140625 123.546875 45.824219 C 124.125 46.054688 124.710938 46.273438 125.300781 46.5 L 125.046875 45.574219 C 125.671875 45.703125 126.296875 45.839844 126.925781 45.96875 C 124.921875 48.035156 122.382812 49.484375 119.6875 50.4375 C 119.6875 50.554688 119.699219 50.796875 119.703125 50.914062 C 117.40625 52.160156 115.25 53.726562 112.699219 54.429688 L 112.882812 53.414062 C 109.601562 54.6875 106.519531 56.382812 103.304688 57.8125 C 103.054688 57.054688 102.804688 56.300781 102.570312 55.546875 C 102.300781 55.773438 101.757812 56.234375 101.484375 56.464844 C 100.449219 57.390625 99.171875 57.949219 97.921875 58.519531 C 97.867188 58.789062 97.757812 59.339844 97.703125 59.609375 C 96.242188 60.421875 94.75 61.15625 93.210938 61.789062 C 89.835938 63.226562 86.648438 65.070312 83.273438 66.507812 C 82.914062 68.875 83.257812 71.289062 82.824219 73.640625 C 82.484375 71.5625 82.730469 69.46875 82.703125 67.382812 C 82.425781 67.929688 81.867188 69.023438 81.578125 69.570312 C 81.445312 68.976562 81.3125 68.382812 81.179688 67.785156 C 80.367188 68.015625 79.546875 68.226562 78.71875 68.425781 C 78.574219 67.867188 78.4375 67.3125 78.300781 66.757812 C 78 66.742188 77.394531 66.714844 77.09375 66.699219 C 77.605469 66.03125 78.132812 65.375 78.660156 64.714844 C 78.75 60.632812 79.007812 56.550781 79.265625 52.46875 C 79.632812 47.714844 80.507812 42.992188 80.394531 38.203125 C 80.101562 38.179688 79.507812 38.125 79.210938 38.101562 C 79.695312 37.632812 80.175781 37.160156 80.660156 36.695312 C 80.6875 36.398438 80.757812 35.8125 80.789062 35.519531 C 81.015625 35.132812 81.242188 34.742188 81.460938 34.351562 L 80.226562 34.109375 C 82.714844 31.765625 86.140625 30.839844 88.945312 28.929688 M 99.714844 26.335938 C 99.75 26.660156 99.824219 27.3125 99.859375 27.640625 C 99.101562 27.960938 98.351562 28.285156 97.589844 28.59375 C 97.660156 28.8125 97.800781 29.257812 97.875 29.476562 C 97.570312 29.339844 96.960938 29.0625 96.65625 28.925781 C 96.679688 29.1875 96.730469 29.714844 96.757812 29.976562 C 96.164062 30.203125 95.574219 30.429688 94.992188 30.660156 C 94.800781 30.644531 94.429688 30.617188 94.242188 30.605469 L 94.230469 31.0625 C 93.449219 31.507812 92.675781 31.964844 91.894531 32.40625 C 89.8125 33.214844 88.046875 34.578125 86.324219 35.96875 C 86.074219 36.992188 85.882812 38.054688 85.390625 38.992188 C 85.1875 39.300781 84.800781 39.90625 84.601562 40.210938 C 84.964844 40.3125 85.6875 40.519531 86.050781 40.625 C 85.734375 40.617188 85.105469 40.617188 84.789062 40.617188 C 84.6875 42.195312 84.589844 43.78125 84.539062 45.367188 C 86.355469 44.789062 88.144531 44.132812 89.890625 43.375 C 92.0625 42.625 94.070312 41.269531 96.414062 41.148438 C 96.382812 41.03125 96.320312 40.789062 96.285156 40.664062 C 96.609375 40.96875 96.914062 41.296875 97.199219 41.632812 C 96.320312 41.757812 95.589844 42.148438 95.324219 43.074219 C 95.785156 43.15625 96.703125 43.3125 97.164062 43.394531 C 95.382812 44.8125 93.265625 45.65625 91.242188 46.632812 C 89.53125 47.421875 88.132812 48.742188 86.410156 49.484375 C 85.285156 50.007812 83.84375 50.578125 83.820312 52.039062 C 83.742188 55.3125 83.273438 58.570312 83.367188 61.84375 C 88.425781 60.226562 92.890625 57.03125 98.144531 55.976562 C 97.257812 56.710938 96.3125 57.367188 95.40625 58.074219 C 97.289062 57.515625 99.089844 56.710938 100.921875 56 C 101.453125 55.507812 102.070312 55.117188 102.8125 55.019531 C 101.664062 52.492188 102.6875 49.648438 102.300781 46.976562 C 101.6875 43.839844 102.421875 40.65625 102.273438 37.484375 C 102.117188 34.382812 103.195312 31.3125 102.570312 28.226562 C 102.0625 27.085938 102.671875 25.984375 103.015625 24.898438 C 101.90625 25.351562 100.824219 25.882812 99.714844 26.335938 Z M 99.714844 26.335938 "/>
<path style=" stroke:none;fill-rule:nonzero;fill:rgb(0%,0%,0%);fill-opacity:1;" d="M 67.523438 38.980469 C 69.367188 38.523438 71.269531 38.617188 73.132812 38.785156 C 72.3125 39.109375 71.460938 39.382812 70.632812 39.71875 C 71.648438 39.8125 72.671875 39.851562 73.6875 39.882812 C 73.730469 39.640625 73.8125 39.160156 73.855469 38.921875 C 74.699219 39.480469 75.5 40.117188 76.171875 40.882812 C 76.320312 41.4375 76.492188 41.992188 76.695312 42.53125 C 76.742188 43.894531 77.148438 45.414062 76.367188 46.65625 C 75.289062 48.84375 73.449219 50.695312 73.070312 53.1875 C 73.28125 52.925781 73.703125 52.398438 73.921875 52.132812 C 75.175781 53.054688 77.195312 53.664062 77.335938 55.480469 C 77.617188 59.4375 74.984375 62.726562 72.859375 65.796875 C 71.140625 68.339844 69.453125 71.078125 66.78125 72.730469 C 64.960938 73.859375 63.769531 75.851562 61.675781 76.554688 C 63.601562 74.355469 65.8125 72.445312 67.882812 70.398438 C 68.9375 68.890625 70.71875 67.8125 71.089844 65.894531 C 69.726562 67.539062 68.390625 69.203125 66.949219 70.785156 C 66.75 70.75 66.355469 70.6875 66.15625 70.648438 C 66.203125 70.9375 66.304688 71.507812 66.355469 71.796875 C 66.15625 71.804688 65.75 71.828125 65.546875 71.839844 C 64.765625 72.789062 63.203125 73.09375 63.074219 74.484375 C 62.394531 74.6875 61.273438 76.195312 61.195312 74.40625 C 61.203125 74.640625 61.230469 75.117188 61.242188 75.351562 C 60.976562 75.824219 60.6875 76.285156 60.367188 76.726562 C 60.851562 76.726562 61.824219 76.71875 62.3125 76.71875 C 61.675781 77.125 61.039062 77.535156 60.410156 77.953125 C 60.160156 79.546875 59.765625 81.144531 58.859375 82.507812 C 59.007812 81.132812 59.429688 79.65625 58.730469 78.355469 C 59.0625 78.09375 59.734375 77.570312 60.070312 77.3125 C 59.476562 77.285156 58.882812 77.269531 58.289062 77.257812 C 58.296875 77.8125 58.300781 78.359375 58.304688 78.914062 C 57.929688 79.140625 57.175781 79.578125 56.796875 79.804688 C 58.160156 72.46875 58.539062 65.007812 59.140625 57.59375 C 59.117188 54.492188 59.570312 51.382812 59.160156 48.296875 C 59.335938 48.1875 59.6875 47.976562 59.859375 47.867188 C 59.640625 47.867188 59.195312 47.882812 58.96875 47.882812 C 56.695312 50.101562 54.828125 52.765625 52.140625 54.507812 C 52.175781 56.90625 52.53125 59.28125 52.820312 61.660156 C 53.117188 62.050781 53.410156 62.4375 53.710938 62.824219 C 53.4375 63.523438 53.175781 64.230469 52.914062 64.9375 C 53.820312 73.265625 53.8125 81.675781 53.773438 90.046875 L 53.949219 90.859375 C 53.632812 90.65625 53.089844 90.519531 53.25 89.992188 C 53.046875 86.882812 52.742188 83.773438 52.664062 80.660156 C 52.460938 80.742188 52.046875 80.914062 51.839844 80.992188 C 51.90625 81.210938 52.035156 81.640625 52.101562 81.855469 C 52.390625 84.859375 52.3125 87.882812 52.320312 90.898438 C 51.9375 90.875 51.175781 90.820312 50.796875 90.796875 C 50.535156 86.085938 50.40625 81.367188 50.046875 76.664062 C 49.769531 73.625 49.929688 70.546875 49.285156 67.539062 C 48.875 67.640625 48.476562 67.742188 48.070312 67.839844 C 47.367188 68.410156 46.605469 68.910156 45.824219 69.367188 C 44.78125 70.203125 43.839844 71.1875 43.382812 72.480469 C 42.0625 77.15625 40.882812 81.867188 39.476562 86.523438 C 39.125 87.617188 38.785156 88.714844 38.515625 89.828125 C 38.203125 89.59375 37.894531 89.359375 37.578125 89.125 C 37.523438 89.480469 37.414062 90.1875 37.359375 90.546875 C 36.949219 90.035156 36.539062 89.523438 36.132812 89.019531 C 35.96875 86.925781 36.84375 84.976562 37.1875 82.945312 C 37.6875 80.15625 38.492188 77.429688 38.867188 74.617188 C 37.992188 74.949219 37.109375 75.296875 36.160156 75.339844 C 36.171875 75.484375 36.179688 75.773438 36.1875 75.921875 C 34.890625 76.460938 34.6875 77.820312 34.617188 79.0625 C 33.648438 81.757812 32.390625 84.351562 30.625 86.617188 C 28.515625 89.324219 27.109375 92.589844 24.523438 94.921875 C 23.320312 97.117188 20.726562 97.800781 19.09375 99.574219 C 17.164062 101.539062 14.992188 103.242188 12.734375 104.8125 C 12.320312 106.8125 12 108.882812 11.007812 110.695312 C 10.65625 108.304688 11.269531 105.835938 11.515625 103.429688 C 10.867188 103.796875 10.234375 104.1875 9.605469 104.585938 C 9.757812 104.710938 10.054688 104.964844 10.203125 105.089844 C 10.160156 105.421875 10.0625 106.078125 10.015625 106.414062 L 9.617188 106.078125 C 9.09375 106.492188 8.570312 106.894531 8.035156 107.289062 C 8.5625 103.726562 9.03125 100.15625 9.589844 96.59375 C 9.664062 95.214844 9.730469 93.828125 9.953125 92.464844 C 10.382812 90.199219 10.070312 87.855469 10.640625 85.605469 C 10.765625 82.449219 11.015625 79.289062 10.734375 76.140625 C 10.910156 76.960938 10.980469 77.800781 11.117188 78.625 C 11.375 74.0625 11.460938 69.484375 11.28125 64.914062 C 8.96875 66.660156 7.382812 69.101562 5.515625 71.257812 C 5.234375 71.300781 4.671875 71.390625 4.390625 71.4375 C 3.601562 72.46875 3.203125 74.234375 1.515625 73.851562 C 1.742188 73.164062 2.105469 72.5625 2.59375 72.035156 C 3.742188 70.320312 4.824219 68.5625 5.9375 66.820312 L 4.699219 66.757812 C 6.375 64.742188 7.660156 62.367188 9.796875 60.773438 C 13.9375 57.425781 18.339844 53.898438 23.78125 53.089844 C 25.585938 52.492188 27.453125 53.300781 29.265625 52.9375 C 29.421875 53.148438 29.730469 53.570312 29.882812 53.78125 C 28.304688 53.59375 26.742188 53.882812 25.257812 54.414062 C 26.789062 54.671875 28.351562 54.699219 29.898438 54.78125 C 30.3125 54.398438 30.730469 54.019531 31.160156 53.660156 C 34.09375 55.523438 34.617188 59.367188 34.132812 62.539062 C 33.257812 64.585938 32.09375 66.507812 30.898438 68.375 C 30.054688 69.4375 30.203125 71.078125 28.804688 71.703125 C 29.644531 71.800781 30.507812 71.828125 31.210938 71.28125 C 32.320312 71.9375 33.421875 72.609375 34.492188 73.335938 C 35.425781 72.914062 36.351562 72.46875 37.226562 71.9375 C 38.09375 71.421875 38.898438 70.789062 39.523438 69.984375 C 41.796875 68.355469 42.140625 65.460938 43.046875 63.015625 C 44.398438 59.023438 45.78125 55.046875 47.039062 51.023438 C 47.6875 49.0625 48.269531 47.089844 48.8125 45.105469 C 48.921875 45.257812 49.132812 45.570312 49.234375 45.726562 C 49.695312 45.898438 50.15625 46.074219 50.617188 46.25 C 50.96875 47.992188 51.234375 49.757812 51.601562 51.5 C 51.679688 52.15625 51.75 52.8125 51.8125 53.46875 C 52.035156 53.425781 52.476562 53.339844 52.695312 53.296875 C 53.523438 51.859375 54.398438 50.453125 55.285156 49.054688 L 54.0625 49.328125 C 55.40625 47.75 56.46875 45.921875 58.078125 44.59375 C 60.90625 42.25 63.90625 39.90625 67.523438 38.980469 M 67.839844 42.5625 C 66.476562 43.21875 65.039062 43.742188 63.742188 44.535156 C 63.269531 48.945312 62.859375 53.4375 63.25 57.84375 C 64.296875 58.289062 63.351562 56.765625 63.257812 56.335938 C 64.304688 56.242188 64.9375 55.304688 65.6875 54.6875 C 67 53.355469 68.71875 52.394531 69.675781 50.734375 C 70.804688 48.84375 71.851562 46.882812 72.425781 44.742188 C 72.804688 43.980469 72.796875 43.117188 72.757812 42.289062 C 71.132812 42.300781 69.367188 41.773438 67.839844 42.5625 M 62.328125 61.6875 C 62.0625 65.679688 61.3125 69.625 61.234375 73.632812 C 65.867188 69.632812 69.980469 64.949219 72.800781 59.492188 C 72.96875 58.429688 72.914062 57.355469 72.921875 56.285156 C 71.914062 56.269531 70.914062 56.273438 69.914062 56.289062 C 67.171875 57.78125 65.019531 60.117188 62.328125 61.6875 M 19.980469 59.617188 C 18.394531 59.535156 16.625 60.6875 16.8125 62.4375 C 16.75 67.144531 15.867188 71.8125 16.25 76.53125 C 16.574219 76.460938 17.230469 76.320312 17.5625 76.25 C 19.289062 74.59375 21.023438 72.9375 22.890625 71.4375 C 24.914062 69.769531 25.796875 67.203125 27.09375 65.007812 C 27.875 63.6875 28.34375 62.1875 28.335938 60.640625 C 28.53125 60.660156 28.925781 60.699219 29.125 60.71875 C 29.5 59.164062 28.75 57.824219 27.214844 57.34375 C 27.214844 57.605469 27.210938 58.117188 27.210938 58.367188 C 24.820312 56.769531 22.117188 58.367188 19.980469 59.617188 M 47.9375 58.226562 C 47.6875 59.3125 47.375 60.382812 47.035156 61.445312 C 46.484375 62.914062 46.230469 64.476562 46.351562 66.050781 C 46.464844 65.679688 46.699219 64.945312 46.820312 64.578125 C 47.046875 64.648438 47.5 64.800781 47.730469 64.875 L 47.769531 64.050781 C 47.980469 64.109375 48.394531 64.226562 48.605469 64.28125 C 49.257812 62.257812 48.980469 60.179688 48.78125 58.117188 C 48.570312 58.140625 48.144531 58.195312 47.9375 58.226562 M 27.550781 76.265625 C 25.328125 76.046875 23.285156 77.242188 21.6875 78.671875 C 19.714844 80.375 17.632812 81.960938 15.359375 83.257812 C 14.6875 88.519531 13.84375 93.789062 13.695312 99.089844 C 16.765625 97.074219 18.96875 94.09375 21.449219 91.449219 C 24.3125 88.394531 26.476562 84.78125 28.648438 81.226562 C 29.851562 79.039062 29.414062 76.410156 27.851562 74.535156 C 27.734375 75.105469 27.632812 75.6875 27.550781 76.265625 M 19.394531 97.398438 C 21.804688 96.4375 23.125 94.117188 24.8125 92.3125 C 25.617188 91.3125 26.867188 90.394531 26.734375 88.96875 C 24.476562 91.945312 21.882812 94.625 19.394531 97.398438 M 16.4375 99.195312 C 16.335938 100.425781 15.25 100.992188 14.28125 101.546875 C 14.171875 100.976562 14.226562 100.398438 14.289062 99.835938 C 13.875 99.984375 13.050781 100.285156 12.632812 100.4375 C 13.0625 100.78125 13.480469 101.132812 13.898438 101.480469 C 13.300781 101.953125 12.9375 102.632812 12.5625 103.289062 C 12.890625 103.289062 13.53125 103.289062 13.851562 103.289062 C 15.4375 102.242188 16.589844 100.660156 18.023438 99.425781 C 17.921875 99.039062 17.714844 98.269531 17.617188 97.882812 C 17.21875 98.320312 16.828125 98.757812 16.4375 99.195312 Z M 16.4375 99.195312 "/>
</g>
</svg>
