<?xml version="1.0" encoding="UTF-8"?>
<svg xmlns="http://www.w3.org/2000/svg" xmlns:xlink="http://www.w3.org/1999/xlink" width="128pt" height="128pt" viewBox="0 0 128 128" version="1.1">
<g id="surface1">
<rect x="0" y="0" width="128" height="128" style="fill:rgb(94.901961%,39.607843%,13.333333%);fill-opacity:1;stroke:none;"/>
<path style=" stroke:none;fill-rule:nonzero;fill:rgb(100%,100%,100%);fill-opacity:1;" d="M 52.765625 79.976562 L 72.34375 79.976562 L 72.34375 74.652344 L 58.8125 74.652344 L 58.8125 66.398438 L 71.289062 66.398438 L 71.289062 61.070312 L 58.8125 61.070312 L 58.8125 53.347656 L 72.34375 53.347656 L 72.34375 48.023438 L 52.765625 48.023438 Z M 98.5 71.292969 C 98.5 64.914062 98.066406 63.519531 89.476562 61.457031 C 83.960938 60.113281 83.863281 60.015625 83.863281 56.371094 C 83.863281 53.585938 84.585938 52.722656 88.664062 52.722656 C 91.445312 52.722656 94.5625 53.109375 97.203125 53.683594 L 97.875 48.59375 C 94.710938 47.875 91.351562 47.539062 88.566406 47.539062 C 80.457031 47.539062 77.816406 50.421875 77.816406 56.226562 C 77.816406 62.992188 78.875 64.480469 86.597656 66.207031 C 92.359375 67.453125 92.453125 67.742188 92.453125 71.292969 C 92.453125 74.367188 91.734375 75.277344 87.367188 75.277344 C 84.199219 75.277344 81.320312 74.703125 78.34375 73.789062 L 77.289062 78.539062 C 79.398438 79.546875 83.625 80.460938 87.269531 80.460938 C 96.722656 80.460938 98.5 77.339844 98.5 71.292969 Z M 109.632812 59.390625 C 109.632812 54.5 111.984375 53.539062 117.648438 53.539062 C 118.65625 53.539062 120.765625 53.683594 122.15625 53.96875 L 122.539062 49.078125 C 121.101562 48.742188 118.796875 48.5 117.023438 48.5 C 108.289062 48.5 103.777344 51.1875 103.777344 59.632812 L 103.777344 71.292969 C 103.777344 76.8125 105.40625 80.460938 113.664062 80.460938 C 121.195312 80.460938 123.5 76.71875 123.5 71.726562 L 123.5 69.421875 C 123.5 63.90625 121.148438 61.503906 115.34375 61.503906 C 113.28125 61.503906 111.3125 61.792969 109.632812 62.367188 Z M 114.429688 66.542969 C 116.539062 66.542969 117.648438 67.265625 117.648438 69.566406 L 117.648438 71.917969 C 117.648438 74.367188 116.6875 75.421875 113.664062 75.421875 C 110.640625 75.421875 109.632812 74.554688 109.632812 71.917969 L 109.632812 67.550781 C 110.976562 66.976562 112.703125 66.542969 114.429688 66.542969 Z M 114.429688 66.542969 "/>
</g>
</svg>
