<?xml version="1.0" encoding="UTF-8"?>
<svg xmlns="http://www.w3.org/2000/svg" xmlns:xlink="http://www.w3.org/1999/xlink" width="128pt" height="286pt" viewBox="0 0 128 286" version="1.1">
<g id="surface1">
<path style=" stroke:none;fill-rule:nonzero;fill:rgb(92.156863%,29.019608%,29.411765%);fill-opacity:1;" d="M 118.4375 2.789062 C 119.171875 2.09375 119.953125 0.96875 121.128906 1.359375 C 124.117188 2.101562 126.226562 4.578125 128 6.9375 L 128 8.734375 C 117.84375 19.414062 107.742188 30.15625 97.570312 40.820312 C 96.8125 41.617188 96.054688 42.484375 95.84375 43.59375 C 94.117188 50.605469 92.40625 57.617188 90.625 64.609375 C 99.875 65.5625 109.203125 66.125 118.304688 68.140625 C 121.25 68.867188 124.339844 69.5 126.894531 71.226562 C 127.988281 71.796875 128.28125 73.492188 127.234375 74.257812 C 125.875 75.386719 124.148438 75.9375 122.503906 76.492188 C 116.851562 78.21875 110.960938 78.984375 105.117188 79.71875 C 86.1875 81.867188 67.09375 82.03125 48.066406 81.539062 C 35.578125 80.96875 23.03125 80.242188 10.734375 77.792969 C 6.976562 76.921875 2.90625 76.171875 0 73.429688 L 0 72.398438 C 2.117188 70.15625 5.199219 69.34375 8.085938 68.589844 C 13.898438 67.171875 19.84375 66.351562 25.789062 65.734375 C 43.335938 63.867188 61 63.851562 78.617188 64.148438 C 80.554688 56.992188 82.382812 49.804688 84.222656 42.617188 C 84.699219 40.882812 84.996094 39.070312 85.738281 37.410156 C 86.710938 35.984375 88.046875 34.859375 89.207031 33.59375 C 98.925781 23.300781 108.734375 13.09375 118.4375 2.789062 M 76.578125 77.015625 C 80.605469 77.835938 85.058594 78.066406 88.910156 76.429688 C 90 76.097656 89.5 74.882812 88.796875 74.449219 C 87.640625 75.386719 86.25 75.96875 84.757812 76.023438 C 81.542969 76.203125 78.0625 76.460938 75.242188 74.609375 C 73.34375 75.402344 75.359375 76.898438 76.578125 77.015625 Z M 76.578125 77.015625 "/>
<path style=" stroke:none;fill-rule:nonzero;fill:rgb(92.156863%,29.019608%,29.411765%);fill-opacity:1;" d="M 0.914062 77.90625 C 5.195312 79.679688 9.734375 80.695312 14.289062 81.46875 C 28.679688 83.773438 43.273438 84.429688 57.828125 84.726562 C 73.554688 84.882812 89.3125 84.4375 104.953125 82.714844 C 112.546875 81.804688 120.207031 80.726562 127.367188 77.925781 C 124.71875 102.796875 121.992188 127.667969 119.332031 152.539062 C 119.394531 153.542969 118.507812 154.121094 117.867188 154.734375 C 114.824219 157.304688 111.867188 159.984375 108.664062 162.367188 C 107.429688 163.242188 106.03125 164.332031 104.425781 163.734375 C 104.546875 163.023438 104.667969 162.28125 105.207031 161.75 C 108.429688 157.851562 112.089844 154.15625 114.148438 149.453125 C 114.941406 147.660156 115.242188 145.257812 113.765625 143.722656 C 111.859375 141.734375 108.671875 141.476562 106.21875 142.53125 C 103.113281 143.828125 100.632812 146.191406 98.328125 148.585938 C 98.460938 147.285156 98.734375 145.988281 98.609375 144.679688 C 98.4375 143.09375 96.054688 142.65625 95.109375 143.789062 C 92.78125 146.410156 92.359375 150.042969 90.964844 153.140625 C 88.386719 155.96875 85.46875 158.511719 82.386719 160.792969 C 80.789062 161.921875 79.085938 163.140625 77.039062 163.140625 C 76.507812 160.574219 77.804688 158.175781 78.648438 155.835938 C 82.363281 146.546875 86.070312 137.25 90.042969 128.070312 C 90.882812 125.941406 92.507812 123.765625 91.8125 121.367188 C 91.105469 119.96875 89.25 119.820312 87.96875 120.398438 C 86.421875 121.179688 85.984375 122.980469 85.355469 124.445312 C 80.71875 136.46875 75.699219 148.355469 71.296875 160.460938 C 69.757812 161.945312 67.8125 163.15625 65.6875 163.5625 C 64.726562 163.875 63.730469 163.070312 63.910156 162.050781 C 64.289062 157.242188 66.617188 152.914062 68.421875 148.53125 C 69.078125 146.898438 69.972656 145.085938 69.34375 143.308594 C 68.855469 142 67.1875 141.457031 66.007812 142.203125 C 64.828125 143.164062 64.296875 144.671875 63.757812 146.050781 C 62.273438 150.554688 60.121094 154.890625 57.167969 158.625 C 55.253906 160.960938 52.609375 163.296875 49.351562 162.890625 C 48.289062 160.351562 49.453125 157.617188 50.296875 155.191406 C 51.59375 151.523438 53.875 148.304688 55.21875 144.664062 C 55.890625 141.597656 51.003906 140.992188 49.898438 143.484375 C 47.046875 148.78125 44.804688 154.429688 43.105469 160.203125 C 42.453125 162.585938 41.847656 165.398438 43.324219 167.609375 C 44.90625 169.816406 48.054688 169.738281 50.429688 169.140625 C 54.546875 168.128906 57.601562 164.929688 59.898438 161.546875 C 59.679688 163.351562 59.429688 165.1875 59.703125 167.007812 C 59.941406 168.71875 61.820312 169.734375 63.4375 169.457031 C 66.195312 169.019531 68.558594 167.410156 70.816406 165.867188 C 71.546875 167.53125 72.628906 169.339844 74.660156 169.460938 C 79.640625 169.710938 83.382812 165.914062 87.0625 163.132812 C 84.664062 169.195312 81.507812 174.929688 79.085938 180.976562 C 78.472656 182.691406 77.6875 184.820312 78.789062 186.5 C 80.015625 187.503906 82.039062 187.363281 83.140625 186.214844 C 84.40625 185.0625 84.957031 183.386719 85.519531 181.820312 C 87.550781 176.148438 89.664062 170.496094 92.226562 165.039062 C 94.648438 159.324219 97.863281 153.695312 102.804688 149.785156 C 104.359375 148.5 106.34375 147.867188 108.359375 148.136719 C 108.804688 149.546875 107.867188 150.777344 107.117188 151.871094 C 104.371094 155.640625 100.953125 158.921875 98.664062 163.015625 C 97.683594 164.671875 97.546875 167.136719 99.179688 168.4375 C 101.378906 170.046875 104.386719 169.640625 106.824219 168.84375 C 111.359375 167.117188 114.804688 163.558594 118.394531 160.4375 C 116.429688 177.859375 114.425781 195.28125 112.371094 212.6875 C 111.25 214.484375 108.882812 214.988281 107.046875 215.824219 C 94.867188 220.113281 81.886719 221.585938 69.054688 222.203125 C 54.523438 222.585938 39.871094 221.382812 25.785156 217.679688 C 22.316406 216.65625 18.726562 215.699219 15.617188 213.792969 C 14.351562 213.1875 14.484375 211.671875 14.359375 210.5 C 13.109375 196.679688 11.699219 182.871094 10.453125 169.046875 C 12.558594 169.851562 14.898438 170.398438 17.105469 169.632812 C 22.242188 167.984375 26.023438 163.945312 29.835938 160.351562 C 28.75 164.589844 27.195312 168.703125 26.203125 172.96875 C 25.992188 174.226562 25.914062 175.546875 26.25 176.792969 C 26.5625 177.914062 28.082031 178.304688 28.957031 177.578125 C 30.351562 176.574219 31.078125 174.925781 31.546875 173.328125 C 33.257812 167.25 35.054688 161.1875 36.929688 155.152344 C 38.359375 150.554688 40.757812 146.1875 41.144531 141.3125 C 41.226562 140.207031 41.257812 138.78125 40.179688 138.121094 C 38.832031 137.15625 36.816406 137.890625 36.117188 139.3125 C 34.195312 143.304688 33.808594 147.996094 31.074219 151.601562 C 28.742188 154.820312 26.003906 157.753906 22.96875 160.320312 C 21.160156 161.6875 19.226562 163.28125 16.851562 163.351562 C 15.148438 163.226562 14.214844 161.527344 13.917969 160.03125 C 13.257812 156.476562 13.996094 152.847656 14.921875 149.410156 C 16.527344 143.6875 19.121094 138.28125 22.195312 133.21875 C 24.6875 129.296875 27.523438 125.414062 31.429688 122.78125 C 33.257812 121.546875 35.804688 120.78125 37.8125 122.066406 C 40.46875 123.597656 40.730469 127.382812 43.46875 128.742188 C 46.457031 129.117188 47.171875 125.183594 46.257812 123.039062 C 44.523438 119.722656 41.542969 116.84375 37.832031 115.921875 C 35.0625 115.285156 32.109375 115.8125 29.609375 117.101562 C 25.546875 119.160156 22.171875 122.339844 19.359375 125.875 C 14.550781 131.953125 10.902344 138.96875 8.671875 146.386719 C 8.546875 146.191406 8.28125 145.792969 8.152344 145.59375 C 5.8125 123.792969 3.421875 101.992188 1.0625 80.1875 C 0.992188 79.421875 0.945312 78.664062 0.914062 77.90625 Z M 0.914062 77.90625 "/>
<path style=" stroke:none;fill-rule:nonzero;fill:rgb(92.156863%,29.019608%,29.411765%);fill-opacity:1;" d="M 17.859375 218.246094 C 26.925781 221.527344 36.476562 223.242188 46.03125 224.289062 C 56.398438 225.402344 66.882812 225.546875 77.265625 224.632812 C 88.066406 223.753906 98.8125 221.828125 109.09375 218.363281 C 106.90625 223.125 103.632812 227.359375 101.625 232.171875 C 100.734375 246.742188 99.953125 261.320312 99.101562 275.894531 C 99.140625 277.445312 97.90625 278.617188 96.691406 279.382812 C 93.835938 281.140625 90.570312 282.046875 87.34375 282.8125 C 78.21875 284.820312 68.828125 285.226562 59.515625 285.019531 C 51.480469 284.609375 43.339844 283.9375 35.683594 281.320312 C 33.226562 280.3125 29.917969 279.316406 29.160156 276.4375 C 28.03125 261.882812 27.023438 247.3125 25.925781 232.753906 C 25.609375 231.210938 24.53125 229.960938 23.808594 228.597656 C 21.835938 225.140625 19.679688 221.785156 17.859375 218.246094 Z M 17.859375 218.246094 "/>
</g>
</svg>
