<?xml version="1.0" encoding="UTF-8"?>
<svg xmlns="http://www.w3.org/2000/svg" xmlns:xlink="http://www.w3.org/1999/xlink" width="128pt" height="128pt" viewBox="0 0 128 128" version="1.1">
<g id="surface1">
<rect x="0" y="0" width="128" height="128" style="fill:rgb(96.862745%,87.45098%,11.764706%);fill-opacity:1;stroke:none;"/>
<path style=" stroke:none;fill-rule:nonzero;fill:rgb(0%,0%,0%);fill-opacity:1;" d="M 33.65625 106.96875 L 43.453125 101.039062 C 45.34375 104.390625 47.0625 107.222656 51.183594 107.222656 C 55.136719 107.222656 57.628906 105.679688 57.628906 99.664062 L 57.628906 58.765625 L 69.65625 58.765625 L 69.65625 99.835938 C 69.65625 112.292969 62.351562 117.960938 51.699219 117.960938 C 42.078125 117.960938 36.492188 112.976562 33.65625 106.964844 "/>
<path style=" stroke:none;fill-rule:nonzero;fill:rgb(0%,0%,0%);fill-opacity:1;" d="M 76.191406 105.679688 L 85.984375 100.007812 C 88.5625 104.21875 91.914062 107.3125 97.84375 107.3125 C 102.828125 107.3125 106.003906 104.820312 106.003906 101.382812 C 106.003906 97.257812 102.742188 95.796875 97.242188 93.390625 L 94.234375 92.101562 C 85.554688 88.40625 79.796875 83.765625 79.796875 73.972656 C 79.796875 64.953125 86.671875 58.078125 97.414062 58.078125 C 105.0625 58.078125 110.558594 60.742188 114.511719 67.703125 L 105.144531 73.714844 C 103.085938 70.019531 100.851562 68.5625 97.414062 68.5625 C 93.890625 68.5625 91.65625 70.792969 91.65625 73.714844 C 91.65625 77.320312 93.890625 78.785156 99.046875 81.015625 L 102.054688 82.304688 C 112.277344 86.6875 118.03125 91.15625 118.03125 101.210938 C 118.03125 112.035156 109.527344 117.964844 98.101562 117.964844 C 86.929688 117.964844 79.710938 112.636719 76.191406 105.679688 "/>
</g>
</svg>
