<?xml version="1.0" encoding="UTF-8"?>
<svg xmlns="http://www.w3.org/2000/svg" xmlns:xlink="http://www.w3.org/1999/xlink" width="128pt" height="128pt" viewBox="0 0 128 128" version="1.1">
<g id="surface1">
<path style=" stroke:none;fill-rule:nonzero;fill:rgb(0%,0%,0%);fill-opacity:1;" d="M 0 0 L 71.265625 0 C 68.324219 4.078125 66.769531 9.300781 68.070312 14.265625 C 69.757812 20.132812 73.570312 25.546875 78.976562 28.519531 C 83.085938 30.671875 87.820312 31.601562 92.4375 31.199219 C 97.132812 30.660156 101.773438 28.125 104.0625 23.875 C 100.96875 24.949219 97.867188 26.351562 94.515625 26.269531 C 88.34375 26.554688 82.449219 23.601562 78 19.5 C 74.0625 15.949219 71.492188 10.824219 71.320312 5.5 C 71.214844 3.65625 71.523438 1.824219 71.742188 0 L 128 0 L 128 128 L 8.824219 128 C 10.789062 127.5 12.46875 126.0625 13.078125 124.101562 C 15.109375 117.960938 16.257812 111.570312 17.53125 105.242188 C 15.554688 105.257812 13.578125 105.257812 11.605469 105.226562 C 9.449219 110.40625 9.804688 116.285156 7.3125 121.339844 C 6.769531 122.867188 4.839844 122.4375 3.609375 122.960938 C 3.007812 124.578125 2.726562 126.289062 2.546875 128 L 0 128 L 0 0 M 49.09375 9.625 C 43.714844 18.8125 45.367188 30.8125 51.144531 39.421875 C 56.132812 46.375 63.179688 52.25 71.632812 54.3125 C 76.132812 55.632812 80.890625 55.46875 85.519531 55.144531 C 92.25 54.101562 98.980469 51.273438 103.492188 46.007812 C 105.449219 43.648438 107.429688 41.085938 108.050781 38.007812 C 104.480469 41.980469 99.949219 45.144531 94.757812 46.5625 C 86.617188 49.15625 77.644531 47.25 70.367188 43.085938 C 64.953125 40.117188 59.921875 36.132812 56.578125 30.875 C 52.960938 25.507812 51.664062 18.859375 51.828125 12.480469 C 52.117188 9.828125 52.425781 7.1875 52.90625 4.5625 C 51.382812 6.039062 50.105469 7.757812 49.09375 9.625 M 25.824219 17.28125 C 23.28125 21.300781 21.15625 25.726562 20.59375 30.507812 C 19.8125 35.398438 20.175781 40.414062 21.164062 45.25 C 25.4375 63.507812 40.960938 78.734375 59.445312 82.21875 C 66.726562 83.421875 74.296875 83.429688 81.4375 81.429688 C 91.9375 78.1875 101.464844 70.773438 105.894531 60.550781 C 104.515625 61.605469 103.285156 62.835938 101.976562 63.96875 C 96.554688 68.320312 89.835938 70.789062 82.992188 71.710938 C 77.285156 72.050781 71.460938 72.171875 65.882812 70.730469 C 59.335938 69.242188 53.492188 65.742188 48.035156 61.953125 C 46.148438 60.703125 44.507812 59.15625 42.769531 57.730469 C 34.535156 50.335938 28.980469 39.6875 28.734375 28.523438 C 28.449219 23.257812 29.0625 17.992188 30.117188 12.839844 C 28.15625 13.664062 27.105469 15.6875 25.824219 17.28125 M 23.242188 98.289062 C 20.007812 102.492188 18.765625 108.074219 19.5 113.285156 C 20.007812 116.164062 22.171875 118.839844 25.140625 119.355469 C 31.105469 120.074219 37.125 119.710938 43.109375 119.53125 C 43.574219 117.820312 44.078125 116.117188 44.375 114.359375 C 43.4375 114.320312 42.507812 114.28125 41.578125 114.257812 C 42.632812 111.109375 43.90625 108.023438 44.617188 104.773438 C 45.476562 100.589844 43.34375 95.769531 39.269531 94.148438 C 33.84375 91.839844 26.757812 93.414062 23.242188 98.289062 M 118.742188 95.730469 C 116.679688 98.671875 114.703125 101.671875 112.632812 104.59375 C 111.769531 105.773438 111.148438 107.1875 109.914062 108.039062 C 109.675781 107.109375 109.394531 106.1875 109.15625 105.257812 C 107.074219 105.242188 104.992188 105.265625 102.921875 105.214844 C 103.203125 108.742188 105.117188 111.945312 105.125 115.515625 C 104.875 116.890625 104.429688 118.21875 104.101562 119.578125 C 106.195312 119.5625 108.300781 119.6875 110.382812 119.382812 C 112.523438 112.578125 117.449219 107.257812 121.71875 101.726562 C 123.132812 99.824219 124.695312 97.964844 125.546875 95.726562 C 123.273438 95.71875 121.007812 95.730469 118.742188 95.730469 M 49.109375 98.765625 C 47.867188 103.4375 46.953125 108.210938 46.289062 113 C 45.859375 115.507812 46.910156 118.605469 49.589844 119.304688 C 54.007812 120.019531 58.507812 119.824219 62.9375 119.382812 C 64.25 112.59375 65.796875 105.851562 67.160156 99.070312 C 65.289062 98.925781 63.414062 98.90625 61.546875 99.050781 C 60.585938 103.5625 59.480469 108.054688 58.550781 112.578125 C 58.4375 113.144531 58.242188 113.6875 57.984375 114.203125 C 56.269531 114.300781 54.554688 114.175781 52.84375 114.296875 C 52.570312 113.554688 52.214844 112.8125 52.320312 111.992188 C 52.5625 107.519531 54.414062 103.28125 54.40625 98.78125 C 52.640625 98.839844 50.875 98.851562 49.109375 98.765625 M 71.6875 100.675781 C 68.800781 102.644531 68.007812 106.328125 67.21875 109.515625 C 66.773438 112.179688 65.824219 115.410156 67.789062 117.6875 C 69.40625 119.695312 72.175781 119.601562 74.5 119.757812 C 77.742188 119.660156 81.039062 120.085938 84.230469 119.339844 C 84.5625 117.773438 84.882812 116.203125 85.359375 114.679688 C 81.5625 113.953125 77.640625 114.75 73.835938 114.148438 C 72.730469 113.664062 72.742188 112.4375 72.800781 111.414062 C 77.296875 111.367188 81.789062 111.414062 86.28125 111.382812 C 86.679688 108.355469 87.828125 105.210938 86.800781 102.1875 C 86.105469 100.109375 83.980469 98.9375 81.9375 98.539062 C 78.429688 98.039062 74.589844 98.492188 71.6875 100.675781 M 12.855469 98.796875 C 12.460938 100.464844 12.078125 102.132812 11.71875 103.8125 C 13.71875 103.898438 15.726562 103.820312 17.726562 103.921875 C 18.210938 102.25 18.71875 100.5625 18.84375 98.820312 C 16.851562 98.8125 14.855469 98.835938 12.855469 98.796875 M 91.007812 101.410156 C 89.894531 107.5 88.296875 113.492188 87.214844 119.578125 C 89.199219 119.578125 91.195312 119.671875 93.164062 119.351562 C 94.023438 114.242188 95.3125 109.203125 96.230469 104.105469 C 100.382812 104.117188 104.539062 104.109375 108.695312 104.105469 C 108.710938 102.644531 108.421875 101.140625 107.570312 99.929688 C 106.578125 98.765625 104.890625 98.839844 103.5 98.804688 C 99.660156 98.851562 95.820312 98.765625 91.984375 98.84375 C 91.148438 99.390625 91.273438 100.554688 91.007812 101.410156 Z M 91.007812 101.410156 "/>
<path style=" stroke:none;fill-rule:nonzero;fill:rgb(0%,0%,0%);fill-opacity:1;" d="M 31.625 99.019531 C 33.8125 98.429688 36.757812 98.914062 37.8125 101.160156 C 38.757812 102.984375 37.992188 105.101562 37.519531 106.949219 C 36.796875 109.351562 36.414062 111.875 35.464844 114.1875 C 32.925781 114.171875 30.257812 114.632812 27.839844 113.632812 C 26.664062 113.03125 25.6875 111.867188 25.859375 110.46875 C 26.0625 107.4375 26.921875 104.453125 28.1875 101.703125 C 28.8125 100.289062 30.160156 99.390625 31.625 99.019531 Z M 31.625 99.019531 "/>
<path style=" stroke:none;fill-rule:nonzero;fill:rgb(0%,0%,0%);fill-opacity:1;" d="M 73.992188 106.71875 C 74.507812 104.105469 77.609375 102.820312 79.921875 103.992188 C 81.019531 104.394531 81.203125 105.640625 81.234375 106.65625 C 78.820312 106.703125 76.40625 106.660156 73.992188 106.71875 Z M 73.992188 106.71875 "/>
<path style=" stroke:none;fill-rule:nonzero;fill:rgb(100%,100%,100%);fill-opacity:1;" d="M 71.265625 0 L 71.742188 0 C 71.523438 1.824219 71.214844 3.65625 71.320312 5.5 C 71.492188 10.824219 74.0625 15.949219 78 19.5 C 82.449219 23.601562 88.34375 26.554688 94.515625 26.269531 C 97.867188 26.351562 100.96875 24.949219 104.0625 23.875 C 101.773438 28.125 97.132812 30.660156 92.4375 31.199219 C 87.820312 31.601562 83.085938 30.671875 78.976562 28.519531 C 73.570312 25.546875 69.757812 20.132812 68.070312 14.265625 C 66.769531 9.300781 68.324219 4.078125 71.265625 0 Z M 71.265625 0 "/>
<path style=" stroke:none;fill-rule:nonzero;fill:rgb(100%,100%,100%);fill-opacity:1;" d="M 49.09375 9.625 C 50.105469 7.757812 51.382812 6.039062 52.90625 4.5625 C 52.425781 7.1875 52.117188 9.828125 51.828125 12.480469 C 51.664062 18.859375 52.960938 25.507812 56.578125 30.875 C 59.921875 36.132812 64.953125 40.117188 70.367188 43.085938 C 77.644531 47.25 86.617188 49.15625 94.757812 46.5625 C 99.949219 45.144531 104.480469 41.980469 108.050781 38.007812 C 107.429688 41.085938 105.449219 43.648438 103.492188 46.007812 C 98.980469 51.273438 92.25 54.101562 85.519531 55.144531 C 80.890625 55.46875 76.132812 55.632812 71.632812 54.3125 C 63.179688 52.25 56.132812 46.375 51.144531 39.421875 C 45.367188 30.8125 43.714844 18.8125 49.09375 9.625 Z M 49.09375 9.625 "/>
<path style=" stroke:none;fill-rule:nonzero;fill:rgb(100%,100%,100%);fill-opacity:1;" d="M 25.824219 17.28125 C 27.105469 15.6875 28.15625 13.664062 30.117188 12.839844 C 29.0625 17.992188 28.449219 23.257812 28.734375 28.523438 C 28.980469 39.6875 34.535156 50.335938 42.769531 57.730469 C 44.507812 59.15625 46.148438 60.703125 48.035156 61.953125 C 53.492188 65.742188 59.335938 69.242188 65.882812 70.730469 C 71.460938 72.171875 77.285156 72.050781 82.992188 71.710938 C 89.835938 70.789062 96.554688 68.320312 101.976562 63.96875 C 103.285156 62.835938 104.515625 61.605469 105.894531 60.550781 C 101.464844 70.773438 91.9375 78.1875 81.4375 81.429688 C 74.296875 83.429688 66.726562 83.421875 59.445312 82.21875 C 40.960938 78.734375 25.4375 63.507812 21.164062 45.25 C 20.175781 40.414062 19.8125 35.398438 20.59375 30.507812 C 21.15625 25.726562 23.28125 21.300781 25.824219 17.28125 Z M 25.824219 17.28125 "/>
<path style=" stroke:none;fill-rule:nonzero;fill:rgb(100%,100%,100%);fill-opacity:1;" d="M 23.242188 98.289062 C 26.757812 93.414062 33.84375 91.839844 39.269531 94.148438 C 43.34375 95.769531 45.476562 100.589844 44.617188 104.773438 C 43.90625 108.023438 42.632812 111.109375 41.578125 114.257812 C 42.507812 114.28125 43.4375 114.320312 44.375 114.359375 C 44.078125 116.117188 43.574219 117.820312 43.109375 119.53125 C 37.125 119.710938 31.105469 120.074219 25.140625 119.355469 C 22.171875 118.839844 20.007812 116.164062 19.5 113.285156 C 18.765625 108.074219 20.007812 102.492188 23.242188 98.289062 M 31.625 99.019531 C 30.160156 99.390625 28.8125 100.289062 28.1875 101.703125 C 26.921875 104.453125 26.0625 107.4375 25.859375 110.46875 C 25.6875 111.867188 26.664062 113.03125 27.839844 113.632812 C 30.257812 114.632812 32.925781 114.171875 35.464844 114.1875 C 36.414062 111.875 36.796875 109.351562 37.519531 106.949219 C 37.992188 105.101562 38.757812 102.984375 37.8125 101.160156 C 36.757812 98.914062 33.8125 98.429688 31.625 99.019531 Z M 31.625 99.019531 "/>
<path style=" stroke:none;fill-rule:nonzero;fill:rgb(100%,100%,100%);fill-opacity:1;" d="M 118.742188 95.730469 C 121.007812 95.730469 123.273438 95.71875 125.546875 95.726562 C 124.695312 97.964844 123.132812 99.824219 121.71875 101.726562 C 117.449219 107.257812 112.523438 112.578125 110.382812 119.382812 C 108.300781 119.6875 106.195312 119.5625 104.101562 119.578125 C 104.429688 118.21875 104.875 116.890625 105.125 115.515625 C 105.117188 111.945312 103.203125 108.742188 102.921875 105.214844 C 104.992188 105.265625 107.074219 105.242188 109.15625 105.257812 C 109.394531 106.1875 109.675781 107.109375 109.914062 108.039062 C 111.148438 107.1875 111.769531 105.773438 112.632812 104.59375 C 114.703125 101.671875 116.679688 98.671875 118.742188 95.730469 Z M 118.742188 95.730469 "/>
<path style=" stroke:none;fill-rule:nonzero;fill:rgb(100%,100%,100%);fill-opacity:1;" d="M 49.109375 98.765625 C 50.875 98.851562 52.640625 98.839844 54.40625 98.78125 C 54.414062 103.28125 52.5625 107.519531 52.320312 111.992188 C 52.214844 112.8125 52.570312 113.554688 52.84375 114.296875 C 54.554688 114.175781 56.269531 114.300781 57.984375 114.203125 C 58.242188 113.6875 58.4375 113.144531 58.550781 112.578125 C 59.480469 108.054688 60.585938 103.5625 61.546875 99.050781 C 63.414062 98.90625 65.289062 98.925781 67.160156 99.070312 C 65.796875 105.851562 64.25 112.59375 62.9375 119.382812 C 58.507812 119.824219 54.007812 120.019531 49.589844 119.304688 C 46.910156 118.605469 45.859375 115.507812 46.289062 113 C 46.953125 108.210938 47.867188 103.4375 49.109375 98.765625 Z M 49.109375 98.765625 "/>
<path style=" stroke:none;fill-rule:nonzero;fill:rgb(100%,100%,100%);fill-opacity:1;" d="M 71.6875 100.675781 C 74.589844 98.492188 78.429688 98.039062 81.9375 98.539062 C 83.980469 98.9375 86.105469 100.109375 86.800781 102.1875 C 87.828125 105.210938 86.679688 108.355469 86.28125 111.382812 C 81.789062 111.414062 77.296875 111.367188 72.800781 111.414062 C 72.742188 112.4375 72.730469 113.664062 73.835938 114.148438 C 77.640625 114.75 81.5625 113.953125 85.359375 114.679688 C 84.882812 116.203125 84.5625 117.773438 84.230469 119.339844 C 81.039062 120.085938 77.742188 119.660156 74.5 119.757812 C 72.175781 119.601562 69.40625 119.695312 67.789062 117.6875 C 65.824219 115.410156 66.773438 112.179688 67.21875 109.515625 C 68.007812 106.328125 68.800781 102.644531 71.6875 100.675781 M 73.992188 106.71875 C 76.40625 106.660156 78.820312 106.703125 81.234375 106.65625 C 81.203125 105.640625 81.019531 104.394531 79.921875 103.992188 C 77.609375 102.820312 74.507812 104.105469 73.992188 106.71875 Z M 73.992188 106.71875 "/>
<path style=" stroke:none;fill-rule:nonzero;fill:rgb(100%,100%,100%);fill-opacity:1;" d="M 12.855469 98.796875 C 14.855469 98.835938 16.851562 98.8125 18.84375 98.820312 C 18.71875 100.5625 18.210938 102.25 17.726562 103.921875 C 15.726562 103.820312 13.71875 103.898438 11.71875 103.8125 C 12.078125 102.132812 12.460938 100.464844 12.855469 98.796875 Z M 12.855469 98.796875 "/>
<path style=" stroke:none;fill-rule:nonzero;fill:rgb(100%,100%,100%);fill-opacity:1;" d="M 91.007812 101.410156 C 91.273438 100.554688 91.148438 99.390625 91.984375 98.84375 C 95.820312 98.765625 99.660156 98.851562 103.5 98.804688 C 104.890625 98.839844 106.578125 98.765625 107.570312 99.929688 C 108.421875 101.140625 108.710938 102.644531 108.695312 104.105469 C 104.539062 104.109375 100.382812 104.117188 96.230469 104.105469 C 95.3125 109.203125 94.023438 114.242188 93.164062 119.351562 C 91.195312 119.671875 89.199219 119.578125 87.214844 119.578125 C 88.296875 113.492188 89.894531 107.5 91.007812 101.410156 Z M 91.007812 101.410156 "/>
<path style=" stroke:none;fill-rule:nonzero;fill:rgb(100%,100%,100%);fill-opacity:1;" d="M 11.605469 105.226562 C 13.578125 105.257812 15.554688 105.257812 17.53125 105.242188 C 16.257812 111.570312 15.109375 117.960938 13.078125 124.101562 C 12.46875 126.0625 10.789062 127.5 8.824219 128 L 2.546875 128 C 2.726562 126.289062 3.007812 124.578125 3.609375 122.960938 C 4.839844 122.4375 6.769531 122.867188 7.3125 121.339844 C 9.804688 116.285156 9.449219 110.40625 11.605469 105.226562 Z M 11.605469 105.226562 "/>
</g>
</svg>
