<?xml version="1.0" encoding="UTF-8"?>
<svg xmlns="http://www.w3.org/2000/svg" xmlns:xlink="http://www.w3.org/1999/xlink" width="128pt" height="128pt" viewBox="0 0 128 128" version="1.1">
<g id="surface1">
<path style=" stroke:none;fill-rule:nonzero;fill:rgb(83.529412%,0%,0%);fill-opacity:1;" d="M 0 40 L 128 40 L 128 85.335938 L 64 85.335938 L 64 93.335938 L 34.664062 93.335938 L 34.664062 85.335938 L 0 85.335938 Z M 0 40 "/>
<path style=" stroke:none;fill-rule:nonzero;fill:rgb(100%,100%,100%);fill-opacity:1;" d="M 8 77.335938 L 21.335938 77.335938 L 21.335938 56 L 29.335938 56 L 29.335938 77.335938 L 34.664062 77.335938 L 34.664062 48 L 8 48 Z M 8 77.335938 "/>
<path style=" stroke:none;fill-rule:nonzero;fill:rgb(100%,100%,100%);fill-opacity:1;" d="M 42.664062 48 L 42.664062 85.335938 L 56 85.335938 L 56 77.335938 L 69.335938 77.335938 L 69.335938 48 Z M 64 69.335938 L 56 69.335938 L 56 56 L 64 56 Z M 64 69.335938 "/>
<path style=" stroke:none;fill-rule:nonzero;fill:rgb(100%,100%,100%);fill-opacity:1;" d="M 77.335938 48 L 77.335938 77.335938 L 90.664062 77.335938 L 90.664062 56 L 98.664062 56 L 98.664062 77.335938 L 106.664062 77.335938 L 106.664062 56 L 114.664062 56 L 114.664062 77.335938 L 120 77.335938 L 120 48 Z M 77.335938 48 "/>
</g>
</svg>
