<?xml version="1.0" encoding="UTF-8"?>
<svg xmlns="http://www.w3.org/2000/svg" xmlns:xlink="http://www.w3.org/1999/xlink" width="127px" height="126px" viewBox="0 0 127 126" version="1.1">
<g id="surface1">
<path style=" stroke:none;fill-rule:nonzero;fill:rgb(86.666667%,22.745098%,3.921569%);fill-opacity:1;" d="M 53.023438 1.1875 C 56.039062 0.9375 59.007812 0.203125 62.035156 0.125 C 67.644531 0.09375 73.238281 0.542969 78.789062 1.28125 C 83.113281 1.859375 87.148438 3.605469 91.285156 4.910156 C 97.402344 7.027344 102.855469 10.644531 107.933594 14.605469 C 110.316406 16.421875 111.808594 19.082031 113.816406 21.265625 C 117.554688 26.144531 121.144531 31.269531 123.207031 37.132812 C 126.097656 43.984375 126.449219 51.527344 126.75 58.863281 C 127.074219 64.582031 126.210938 70.273438 125.351562 75.910156 C 124.917969 79.152344 123.269531 82.0625 122.652344 85.257812 C 123.171875 86.933594 124.308594 88.320312 125.175781 89.820312 C 123.695312 90.023438 122.179688 90.035156 120.746094 90.46875 C 118.839844 93.292969 117.535156 96.492188 115.679688 99.351562 C 113.289062 103.15625 110.195312 106.46875 106.90625 109.5 C 105.101562 111.214844 102.964844 112.558594 101.277344 114.402344 C 99.800781 115.296875 98.152344 115.867188 96.703125 116.816406 C 93.359375 119.136719 89.394531 120.273438 85.582031 121.550781 C 84.589844 121.847656 83.957031 122.707031 83.324219 123.464844 C 81.820312 123.949219 80.25 124.140625 78.679688 123.878906 C 78.683594 124.078125 78.691406 124.46875 78.691406 124.664062 C 76.785156 124.820312 74.886719 125.085938 73.074219 125.726562 C 73.398438 125.4375 73.714844 125.148438 74.03125 124.859375 C 74.527344 124.738281 75.511719 124.5 76.007812 124.375 C 73.261719 124.386719 70.507812 124.527344 67.804688 125.03125 C 69.335938 125.035156 70.863281 124.964844 72.390625 124.941406 C 72.390625 125.175781 72.390625 125.644531 72.390625 125.875 C 70.628906 125.960938 68.867188 126.039062 67.113281 126.199219 L 63.980469 126.199219 L 64.65625 125.53125 C 60.363281 125.0625 55.972656 125.296875 51.792969 124.074219 C 49.015625 123.210938 46.171875 122.613281 43.375 121.839844 C 38.863281 120.558594 34.980469 117.847656 30.945312 115.550781 C 28.074219 113.898438 25.574219 111.679688 23.351562 109.234375 C 21.253906 108.617188 18.28125 107.289062 18.328125 104.734375 C 16.511719 102.722656 14.863281 100.570312 13.636719 98.136719 C 14.867188 99.234375 16.117188 100.308594 17.425781 101.308594 C 16.277344 98.996094 14.789062 96.859375 13.773438 94.476562 C 14.144531 94.511719 14.515625 94.535156 14.886719 94.589844 C 16.449219 99.074219 20.832031 101.328125 23.847656 104.65625 C 25.226562 105.792969 26.8125 106.644531 28.117188 107.882812 C 30.375 109.964844 33.3125 110.964844 35.898438 112.539062 C 38.054688 113.882812 40.695312 114.152344 42.773438 115.667969 C 45.167969 117.3125 48.015625 117.953125 50.832031 118.433594 C 54.957031 119.570312 59.234375 119.992188 63.484375 120.378906 C 68.132812 120.347656 72.722656 119.371094 77.335938 118.855469 C 80.703125 118.546875 83.660156 116.792969 86.796875 115.683594 C 88.660156 115.054688 90.289062 113.933594 91.960938 112.925781 C 95.832031 110.78125 99.515625 108.28125 102.921875 105.445312 C 105.386719 102.917969 108.433594 100.796875 109.945312 97.484375 C 110.734375 95.6875 111.746094 94.011719 112.867188 92.410156 C 113.03125 92.269531 113.363281 91.992188 113.527344 91.851562 C 113.824219 91.097656 114.128906 90.351562 114.453125 89.605469 C 108.140625 89.453125 101.839844 89.984375 95.53125 90.277344 C 90.601562 90.640625 85.640625 90.335938 80.714844 90.792969 C 77.773438 91.054688 74.8125 90.992188 71.875 91.34375 C 62.933594 92.242188 53.933594 91.78125 44.976562 92.320312 C 38.914062 92.539062 32.851562 92.570312 26.789062 92.464844 C 19.976562 92.746094 13.128906 92.308594 6.464844 90.84375 C 8.355469 88.816406 11.359375 89.058594 13.886719 88.902344 C 21.371094 88.453125 28.871094 88.828125 36.363281 88.511719 C 36.550781 86.265625 36.578125 84.011719 36.585938 81.761719 C 36.859375 81.535156 37.402344 81.085938 37.675781 80.855469 C 36.542969 77.117188 36.878906 73.1875 37.664062 69.410156 C 37.480469 69.484375 37.113281 69.644531 36.929688 69.71875 C 36.808594 68.445312 36.515625 67.164062 36.707031 65.886719 C 37.421875 61.382812 36.445312 56.835938 36.964844 52.320312 C 36.960938 48.28125 37.539062 44.265625 37.488281 40.222656 C 32.972656 45.449219 29.34375 51.492188 23.917969 55.882812 C 24.382812 55.035156 24.847656 54.195312 25.324219 53.359375 C 24.902344 53.648438 24.050781 54.234375 23.628906 54.53125 C 29.195312 46.824219 34.472656 38.890625 39.738281 30.960938 C 43.460938 25.914062 47.167969 20.851562 51.082031 15.949219 C 53.539062 12.238281 56.203125 8.679688 58.757812 5.039062 C 54.371094 5.425781 49.875 5.378906 45.648438 6.777344 C 35.4375 9.425781 26.613281 15.902344 19.675781 23.734375 C 16.90625 27.199219 14.648438 31.050781 12.441406 34.898438 C 9.46875 39.890625 7.265625 45.328125 5.789062 50.945312 C 5.089844 53.507812 5.476562 56.230469 4.746094 58.785156 C 4.171875 60.152344 3.253906 61.339844 2.496094 62.605469 C 1.628906 58.921875 1.402344 55.113281 1.613281 51.335938 C 1.742188 48.253906 2.851562 45.347656 3.601562 42.390625 C 4.484375 38.730469 6.429688 35.476562 8.117188 32.148438 C 11.0625 26.519531 15.117188 21.585938 19.285156 16.839844 C 22.121094 13.816406 25.535156 11.429688 28.960938 9.144531 C 36.050781 4.289062 44.558594 1.980469 53.023438 1.1875 M 65.839844 5.164062 C 68.589844 8.246094 70.96875 11.644531 73.460938 14.933594 C 77.773438 21.042969 82.441406 26.894531 86.539062 33.15625 C 87.425781 34.183594 88.136719 35.953125 89.75 35.808594 C 90.980469 35.855469 92.210938 35.910156 93.433594 36.03125 C 93.300781 38.363281 93.015625 40.753906 93.578125 43.054688 C 94.433594 44.652344 95.621094 46.039062 96.605469 47.5625 C 98.097656 49.707031 99.269531 52.054688 100.726562 54.21875 C 104.074219 58.761719 106.960938 63.613281 110.355469 68.117188 C 112.800781 72.046875 115.28125 75.960938 117.921875 79.769531 C 118.351562 79.386719 118.777344 78.992188 119.191406 78.59375 C 118.796875 78.574219 117.996094 78.539062 117.597656 78.523438 C 117.734375 77.953125 117.886719 77.390625 118.027344 76.828125 C 118.199219 76.128906 118.234375 75.351562 118.753906 74.796875 C 118.683594 74.34375 118.550781 73.433594 118.480469 72.980469 C 118.765625 73.496094 119.320312 74.523438 119.601562 75.039062 C 119.949219 71.984375 119.902344 68.898438 120.367188 65.851562 C 120.574219 65.019531 120.242188 64.246094 119.921875 63.503906 C 119.867188 62.988281 119.816406 62.476562 119.773438 61.96875 C 120.027344 61.996094 120.535156 62.058594 120.789062 62.089844 C 120.488281 60.609375 120.371094 59.074219 119.6875 57.714844 C 120.0625 57.699219 120.816406 57.664062 121.195312 57.648438 C 120.773438 57.625 119.9375 57.566406 119.519531 57.542969 L 119.550781 57.058594 C 119.871094 57.09375 120.511719 57.160156 120.832031 57.195312 C 120.789062 55.585938 120.796875 53.988281 120.734375 52.378906 C 120.804688 50.429688 119.324219 48.859375 119.335938 46.90625 C 119.140625 42.914062 117.777344 39.128906 116.542969 35.367188 C 115.753906 32.945312 114.140625 30.925781 112.652344 28.910156 C 108.875 24.414062 105.296875 19.703125 100.992188 15.683594 C 96.664062 12.976562 91.960938 10.917969 87.222656 9.039062 C 80.390625 6.460938 73.089844 5.519531 65.839844 5.164062 M 53.738281 18.574219 C 52.734375 19.613281 52.21875 21.027344 51.09375 21.964844 C 50.195312 22.707031 49.636719 23.738281 49.273438 24.832031 L 49.105469 24.617188 C 48.449219 26.5625 46.707031 27.761719 45.589844 29.40625 C 43.5625 32.1875 41.582031 35.007812 39.539062 37.78125 C 44.742188 37.84375 49.945312 37.640625 55.136719 37.207031 C 60.539062 37.242188 65.9375 36.957031 71.308594 36.398438 C 75.007812 35.964844 78.726562 36.367188 82.4375 36.285156 C 75.75 26.453125 69.492188 16.296875 61.851562 7.160156 C 58.839844 10.730469 56.277344 14.664062 53.738281 18.574219 M 72.820312 41.785156 C 75.886719 43.347656 79.316406 44.488281 81.679688 47.117188 C 84.546875 50.164062 86.796875 53.828125 87.992188 57.859375 C 87.960938 53.554688 88.082031 49.246094 87.75 44.953125 C 87.75 43.660156 86.945312 42.554688 86.144531 41.609375 C 81.710938 41.496094 77.261719 41.679688 72.820312 41.785156 M 42.503906 43.152344 C 42.636719 47.171875 42.398438 51.1875 42.28125 55.203125 C 44.023438 52.15625 46.519531 49.683594 48.875 47.121094 C 50.566406 45.328125 52.613281 43.929688 54.664062 42.59375 C 50.605469 42.632812 46.558594 43.007812 42.503906 43.152344 M 62.625 45.050781 C 62.65625 45.265625 62.71875 45.691406 62.742188 45.90625 C 62.4375 46.011719 61.824219 46.214844 61.519531 46.3125 L 62.597656 45.273438 C 59.742188 45.433594 57.308594 47.011719 54.75 48.105469 L 55.058594 48.742188 L 54.269531 48.582031 L 54.339844 49.480469 C 54.136719 49.367188 53.730469 49.140625 53.527344 49.023438 C 52.542969 50.285156 51.222656 51.191406 49.996094 52.195312 C 48.988281 53.363281 47.925781 54.519531 47.191406 55.886719 C 45.496094 57.234375 45.144531 59.527344 44.132812 61.347656 C 44.222656 62.859375 44.265625 65.769531 42.078125 65.574219 C 42.023438 68.828125 42.109375 72.082031 42.109375 75.339844 C 42.308594 79.800781 42.917969 84.246094 42.777344 88.714844 C 47.394531 88.617188 52.019531 88.683594 56.632812 88.433594 C 55.027344 87.570312 53.257812 87.066406 51.652344 86.203125 C 50.253906 85.472656 49.492188 84.046875 48.597656 82.808594 C 48.355469 82.707031 47.867188 82.511719 47.628906 82.414062 C 46.945312 81.121094 45.925781 80.070312 45.046875 78.921875 C 43.9375 77.335938 43.195312 75.503906 42.734375 73.628906 C 43.046875 73.894531 43.671875 74.417969 43.984375 74.675781 C 43.914062 74.183594 43.773438 73.191406 43.707031 72.695312 C 45.054688 74.917969 47.070312 76.921875 47.515625 79.570312 C 49.164062 79.574219 49.824219 81.5 51.1875 82.175781 C 53.898438 83.699219 56.832031 85.167969 60.023438 85.117188 C 65.242188 85.433594 70.949219 84.941406 75.207031 81.574219 C 77.15625 80.390625 78.277344 78.347656 79.515625 76.503906 C 80.789062 74.472656 81.617188 72.1875 81.917969 69.8125 C 83.140625 67.125 83.0625 64.148438 83.609375 61.300781 C 83.429688 56.445312 80.773438 51.691406 76.59375 49.1875 C 74.429688 47.800781 72.421875 46.085938 69.953125 45.265625 C 67.574219 44.59375 65.046875 44.632812 62.625 45.050781 M 93.507812 52.667969 C 93.515625 56.25 92.980469 59.851562 93.425781 63.417969 C 93.488281 64.925781 93.035156 66.40625 93.1875 67.917969 C 93.167969 69.703125 93.601562 71.515625 93.148438 73.269531 C 94.726562 74.742188 93.707031 77.121094 94.421875 78.972656 C 94.007812 79.445312 93.597656 79.921875 93.171875 80.382812 C 93.160156 80.765625 93.148438 81.53125 93.136719 81.910156 C 93.363281 82.457031 93.574219 83.011719 93.785156 83.566406 L 92.980469 83.457031 C 93.003906 84.636719 93.03125 85.820312 93.097656 87.003906 C 95.957031 87.183594 98.820312 87.066406 101.671875 86.792969 C 106.839844 86.460938 112.042969 86.976562 117.203125 86.46875 C 114.199219 82.863281 111.605469 78.945312 108.738281 75.234375 C 104.234375 69.335938 100.757812 62.726562 96.269531 56.808594 C 95.308594 55.457031 94.472656 54.023438 93.507812 52.667969 M 81.894531 81.835938 C 79.472656 84 77.027344 86.234375 74.097656 87.6875 C 78.894531 87.507812 83.707031 87.582031 88.488281 87.148438 C 87.734375 82.410156 87.355469 77.613281 87.375 72.816406 C 85.683594 75.894531 84.410156 79.300781 81.894531 81.835938 Z M 81.894531 81.835938 "/>
<path style=" stroke:none;fill-rule:nonzero;fill:rgb(86.666667%,22.745098%,3.921569%);fill-opacity:1;" d="M 15.164062 64.820312 C 15.949219 63.59375 17.132812 62.695312 18.089844 61.609375 C 17.964844 62.136719 17.714844 63.191406 17.585938 63.714844 C 16.925781 64.402344 16.3125 65.125 15.710938 65.867188 C 15.4375 65.5625 15.253906 65.214844 15.164062 64.820312 Z M 15.164062 64.820312 "/>
<path style=" stroke:none;fill-rule:nonzero;fill:rgb(86.666667%,22.745098%,3.921569%);fill-opacity:1;" d="M 3.835938 64.921875 C 4.183594 64.761719 4.871094 64.441406 5.214844 64.28125 C 5.496094 66.929688 6.558594 69.503906 6.085938 72.199219 C 6.433594 72.507812 6.785156 72.8125 7.144531 73.113281 C 6.730469 73.078125 5.910156 73.015625 5.496094 72.980469 C 5.5 73.453125 5.507812 74.410156 5.511719 74.882812 C 5.183594 73.335938 4.867188 71.738281 3.871094 70.46875 C 3.492188 68.601562 3.175781 66.714844 2.777344 64.855469 L 3.988281 65.773438 C 3.953125 65.558594 3.875 65.136719 3.835938 64.921875 Z M 3.835938 64.921875 "/>
<path style=" stroke:none;fill-rule:nonzero;fill:rgb(86.666667%,22.745098%,3.921569%);fill-opacity:1;" d="M 6.625 78.328125 C 8.082031 77.570312 6.648438 80.007812 6.625 78.328125 Z M 6.625 78.328125 "/>
</g>
</svg>
