<?xml version="1.0" encoding="UTF-8"?>
<svg xmlns="http://www.w3.org/2000/svg" xmlns:xlink="http://www.w3.org/1999/xlink" width="128pt" height="150pt" viewBox="0 0 128 150" version="1.1">
<g id="surface1">
<path style=" stroke:none;fill-rule:nonzero;fill:rgb(6.666667%,6.27451%,5.490196%);fill-opacity:1;" d="M 36.015625 0 L 43.25 0 C 47.339844 0.753906 51.460938 1.617188 55.25 3.390625 C 65.320312 8.03125 73.15625 17.101562 76.4375 27.65625 C 77.515625 30.28125 77.015625 33.46875 79.132812 35.632812 C 82.257812 35.828125 85.421875 35.53125 88.507812 36.167969 C 96.984375 38.292969 104.757812 43.320312 110.007812 50.328125 C 112.398438 54.546875 114.074219 59.179688 115.007812 63.949219 C 116.410156 71.007812 117.484375 78.125 118.535156 85.25 C 119.675781 94.109375 121.367188 102.890625 122.773438 111.71875 C 123.546875 116.300781 124.199219 120.90625 125.039062 125.484375 C 125.824219 132.664062 126.648438 139.875 126.273438 147.125 C 123.828125 146.492188 121.90625 144.523438 120.984375 142.226562 C 119.53125 138.011719 119.320312 133.519531 118.644531 129.148438 C 118.351562 127.121094 116.210938 126.363281 114.410156 126.335938 C 112.601562 127.535156 111.359375 129.742188 112.109375 131.921875 C 113.539062 135.40625 116.269531 138.109375 118.742188 140.878906 C 120.144531 142.410156 120.324219 144.75 122.007812 146.0625 C 123.101562 147.085938 124.421875 147.828125 125.859375 148.234375 C 125.839844 148.519531 125.796875 149.082031 125.769531 149.367188 C 122.71875 150.171875 119.589844 149.320312 116.5 149.6875 C 112.8125 149.648438 109.054688 150.199219 105.4375 149.296875 C 104.757812 147.472656 103.945312 145.703125 103.265625 143.882812 C 102.550781 141.9375 101.296875 140.234375 100.660156 138.261719 C 99.804688 135.5625 98.117188 133.230469 97.339844 130.5 C 95.5625 126.761719 93.964844 122.929688 92.0625 119.246094 C 90.925781 115.789062 88.960938 112.6875 87.769531 109.253906 C 86.195312 106.4375 85.339844 103.304688 83.785156 100.484375 C 82.289062 97.828125 81.492188 94.859375 79.992188 92.214844 C 78.6875 88.648438 76.757812 85.363281 75.507812 81.777344 C 74.421875 79.484375 73.210938 77.242188 72.460938 74.800781 C 70.699219 71.75 69.75 68.320312 67.992188 65.273438 C 67.507812 64.414062 67.242188 63.460938 67.039062 62.507812 C 66.6875 62.125 66.335938 61.742188 65.984375 61.359375 C 54.046875 83.351562 42.96875 105.808594 31.359375 127.976562 C 27.8125 134.910156 24.160156 141.796875 21.035156 148.929688 C 20.359375 149.042969 19.6875 149.210938 19 149.179688 C 13.320312 148.671875 7.609375 149.023438 1.921875 148.828125 C 19.070312 116.34375 35.910156 83.695312 52.84375 51.101562 C 53.539062 49.8125 54.164062 48.480469 54.519531 47.054688 C 52.851562 47.503906 51.285156 48.226562 49.710938 48.921875 C 46.03125 50.480469 41.976562 50.773438 38.015625 50.605469 C 33.679688 50.664062 29.601562 49.023438 25.546875 47.703125 C 27.390625 46.125 29.199219 44.460938 31.382812 43.359375 C 38.679688 39.484375 47.078125 37.683594 55.328125 38.203125 C 54.632812 35.335938 52.992188 32.875 51.59375 30.320312 C 53.171875 26.589844 56.375 23.679688 59.703125 21.46875 C 59.773438 21.222656 59.914062 20.726562 59.984375 20.480469 C 55.132812 20.132812 51.160156 23.472656 48.105469 26.835938 C 46.300781 25.375 44.160156 24.449219 42.1875 23.253906 C 42.699219 21.5 42.976562 19.679688 43.59375 17.960938 C 44.257812 16.457031 45.335938 15.117188 45.546875 13.4375 C 41.714844 14.648438 39.464844 18.390625 38.226562 21.980469 C 35.78125 21.492188 33.273438 21.640625 30.800781 21.703125 C 30.234375 18.921875 30.15625 16.085938 30.390625 13.265625 C 27.257812 15.125 27.507812 19.292969 27.351562 22.464844 C 24.992188 23.167969 22.804688 24.300781 20.796875 25.703125 C 19.4375 23.875 18.464844 21.816406 17.695312 19.6875 C 17.484375 19.742188 17.0625 19.851562 16.851562 19.90625 C 16.734375 21.570312 16.535156 23.28125 17.09375 24.890625 C 17.375 26.066406 17.992188 27.222656 17.882812 28.460938 C 16.90625 30.226562 15.664062 31.859375 14.953125 33.773438 C 13.140625 33.382812 11.617188 32.28125 10.0625 31.34375 C 10.054688 33.75 11.855469 35.535156 13.757812 36.734375 C 13.210938 39.117188 13.0625 41.5625 13.109375 44.007812 C 11.429688 44.445312 9.699219 44.625 7.976562 44.773438 C 9.3125 46.234375 11.289062 46.265625 13.117188 46.371094 C 13.640625 48.53125 14.296875 50.660156 14.898438 52.796875 C 13.929688 53.585938 12.980469 54.398438 12.054688 55.242188 C 13.460938 55.820312 14.78125 55.015625 16.070312 54.546875 C 17.714844 56.214844 19.75 57.414062 21.894531 58.324219 C 21.867188 58.847656 21.8125 59.898438 21.789062 60.421875 C 22.4375 60.019531 23.0625 59.59375 23.679688 59.140625 C 27.160156 60.214844 30.867188 60.476562 34.460938 59.925781 C 37.390625 59.335938 39.742188 57.421875 42.414062 56.21875 C 42.5 58.609375 40.773438 60.449219 39.257812 62.074219 C 35.8125 65.570312 30.78125 66.996094 25.976562 66.996094 C 22.109375 66.582031 18.296875 65.625 14.757812 64.03125 C 12.015625 62.585938 9.8125 60.339844 7.78125 58.046875 C 3.671875 53.148438 0.851562 46.890625 1.117188 40.40625 C 0.46875 26.523438 8.140625 12.710938 20.007812 5.519531 C 24.824219 2.445312 30.421875 0.90625 36.015625 0 M 91.46875 71.355469 C 90.980469 74.042969 91.101562 77.015625 92.585938 79.398438 C 94.117188 82.316406 97.234375 83.726562 99.84375 85.492188 C 100.796875 86.164062 101.882812 86.589844 102.984375 86.945312 C 102.6875 85.882812 102.410156 84.808594 102.179688 83.726562 C 96.476562 83.460938 93.394531 75.117188 97.820312 71.359375 C 97.234375 70.304688 96.742188 69.203125 96.507812 68.019531 C 94.390625 67.976562 92.3125 69.453125 91.46875 71.355469 M 98.601562 75.460938 C 98.390625 77.378906 98.757812 80.519531 101.25 80.507812 C 100.65625 78.867188 99.960938 77.257812 99.632812 75.539062 C 99.375 75.519531 98.859375 75.484375 98.601562 75.460938 Z M 98.601562 75.460938 "/>
</g>
</svg>
