<?xml version="1.0" encoding="UTF-8"?>
<svg xmlns="http://www.w3.org/2000/svg" xmlns:xlink="http://www.w3.org/1999/xlink" width="128pt" height="128pt" viewBox="0 0 128 128" version="1.1">
<g id="surface1">
<path style=" stroke:none;fill-rule:nonzero;fill:rgb(100%,100%,100%);fill-opacity:1;" d="M 18.523438 37.015625 C 33.695312 28.464844 48.835938 19.875 64 11.3125 C 79.160156 19.875 94.304688 28.464844 109.46875 37.015625 C 110.015625 37.335938 110.804688 37.679688 110.632812 38.476562 C 110.632812 55.789062 110.640625 73.105469 110.625 90.414062 C 95.070312 99.175781 79.535156 107.980469 64 116.773438 C 48.464844 107.980469 32.929688 99.175781 17.375 90.414062 C 17.359375 73.105469 17.367188 55.789062 17.367188 38.476562 C 17.195312 37.679688 17.980469 37.339844 18.523438 37.015625 M 54.90625 22.90625 C 45.304688 28.3125 35.742188 33.769531 26.132812 39.144531 C 25.699219 39.429688 25.0625 39.65625 25.226562 40.300781 C 27.539062 41.882812 30.078125 43.089844 32.46875 44.5625 C 34.300781 45.550781 35.984375 46.882812 38.007812 47.46875 C 39.335938 47.132812 40.507812 46.382812 41.695312 45.726562 C 48.507812 41.839844 55.5 38.257812 62.265625 34.296875 C 62.394531 29.195312 62.3125 24.085938 62.300781 18.980469 C 59.675781 19.976562 57.351562 21.5625 54.90625 22.90625 M 65.609375 18.945312 C 65.515625 24.074219 65.429688 29.214844 65.640625 34.339844 C 68.882812 36.351562 72.320312 38.019531 75.632812 39.910156 C 80.4375 42.410156 85.015625 45.351562 89.945312 47.585938 C 94.40625 45.226562 98.769531 42.65625 103.070312 40.015625 C 91.851562 33.46875 80.453125 27.234375 69.195312 20.757812 C 68.039062 20.078125 66.828125 19.492188 65.609375 18.945312 M 41.398438 49.601562 C 43.617188 51.117188 46.007812 52.335938 48.3125 53.699219 C 53.535156 56.660156 58.65625 59.804688 63.953125 62.632812 C 71.519531 58.375 79.054688 54.046875 86.507812 49.601562 C 79.023438 45.4375 71.507812 41.3125 63.984375 37.203125 C 56.394531 41.21875 48.882812 45.390625 41.398438 49.601562 M 23.125 43.007812 C 22.9375 46.5 23.074219 50.007812 23.046875 53.5 C 23.089844 64.355469 22.9375 75.214844 23.109375 86.0625 C 25.589844 85.007812 27.839844 83.515625 30.175781 82.1875 C 32.273438 80.949219 34.480469 79.890625 36.4375 78.425781 C 36.648438 72.453125 36.410156 66.476562 36.5 60.5 C 36.484375 57.214844 36.660156 53.921875 36.390625 50.640625 C 32.054688 47.953125 27.632812 45.398438 23.125 43.007812 M 91.492188 50.605469 C 91.210938 53.0625 91.335938 55.535156 91.339844 58 C 91.425781 64.8125 91.164062 71.625 91.449219 78.429688 C 93.53125 79.980469 95.867188 81.117188 98.09375 82.425781 C 100.304688 83.671875 102.410156 85.132812 104.800781 86.035156 C 104.835938 71.703125 104.8125 57.367188 104.804688 43.035156 C 100.242188 45.3125 95.859375 47.96875 91.492188 50.605469 M 39.730469 52.539062 C 39.699219 60.035156 39.757812 67.53125 39.703125 75.03125 C 39.769531 75.703125 39.578125 76.476562 39.945312 77.089844 C 40.710938 77.695312 41.59375 78.117188 42.445312 78.59375 C 49.085938 82.164062 55.632812 85.90625 62.289062 89.4375 C 62.324219 81.5 62.289062 73.5625 62.3125 65.625 C 61.324219 64.949219 60.320312 64.3125 59.28125 63.734375 C 52.730469 60.0625 46.304688 56.164062 39.730469 52.539062 M 82.96875 55.449219 C 77.195312 58.855469 71.300781 62.050781 65.59375 65.570312 C 65.574219 73.523438 65.578125 81.480469 65.59375 89.4375 C 73.117188 85.320312 80.675781 81.25 88.132812 77.007812 C 88.132812 68.882812 88.214844 60.757812 88.085938 52.632812 C 86.320312 53.464844 84.644531 54.460938 82.96875 55.449219 M 25.855469 88.546875 C 27.445312 89.710938 29.171875 90.671875 30.898438 91.605469 C 39.210938 96.296875 47.507812 101.007812 55.820312 105.695312 C 57.949219 106.867188 59.960938 108.289062 62.289062 109.054688 C 62.328125 103.773438 62.390625 98.492188 62.257812 93.214844 C 58.269531 90.8125 54.085938 88.742188 50.039062 86.429688 C 46.484375 84.550781 43.050781 82.4375 39.429688 80.6875 C 34.820312 83.144531 30.285156 85.773438 25.855469 88.546875 M 85.945312 81.910156 C 79.242188 85.757812 72.359375 89.300781 65.664062 93.171875 C 65.398438 98.476562 65.53125 103.796875 65.605469 109.105469 C 66.523438 108.703125 67.445312 108.300781 68.328125 107.820312 C 77.242188 102.710938 86.210938 97.699219 95.144531 92.617188 C 97.46875 91.285156 99.882812 90.089844 102.078125 88.535156 C 97.574219 85.839844 93.0625 83.140625 88.414062 80.6875 C 87.585938 81.078125 86.75 81.464844 85.945312 81.910156 Z M 85.945312 81.910156 "/>
<path style=" stroke:none;fill-rule:nonzero;fill:rgb(55.686275%,83.529412%,98.039216%);fill-opacity:1;" d="M 54.90625 22.90625 C 57.351562 21.5625 59.675781 19.976562 62.300781 18.980469 C 62.3125 24.085938 62.394531 29.195312 62.265625 34.296875 C 55.5 38.257812 48.507812 41.839844 41.695312 45.726562 C 40.507812 46.382812 39.335938 47.132812 38.007812 47.46875 C 35.984375 46.882812 34.300781 45.550781 32.46875 44.5625 C 30.078125 43.089844 27.539062 41.882812 25.226562 40.300781 C 25.0625 39.65625 25.699219 39.429688 26.132812 39.144531 C 35.742188 33.769531 45.304688 28.3125 54.90625 22.90625 Z M 54.90625 22.90625 "/>
<path style=" stroke:none;fill-rule:nonzero;fill:rgb(55.686275%,83.529412%,98.039216%);fill-opacity:1;" d="M 65.609375 18.945312 C 66.828125 19.492188 68.039062 20.078125 69.195312 20.757812 C 80.453125 27.234375 91.851562 33.46875 103.070312 40.015625 C 98.769531 42.65625 94.40625 45.226562 89.945312 47.585938 C 85.015625 45.351562 80.4375 42.410156 75.632812 39.910156 C 72.320312 38.019531 68.882812 36.351562 65.640625 34.339844 C 65.429688 29.214844 65.515625 24.074219 65.609375 18.945312 Z M 65.609375 18.945312 "/>
<path style=" stroke:none;fill-rule:nonzero;fill:rgb(55.686275%,83.529412%,98.039216%);fill-opacity:1;" d="M 23.125 43.007812 C 27.632812 45.398438 32.054688 47.953125 36.390625 50.640625 C 36.660156 53.921875 36.484375 57.214844 36.5 60.5 C 36.410156 66.476562 36.648438 72.453125 36.4375 78.425781 C 34.480469 79.890625 32.273438 80.949219 30.175781 82.1875 C 27.839844 83.515625 25.589844 85.007812 23.109375 86.0625 C 22.9375 75.214844 23.089844 64.355469 23.046875 53.5 C 23.074219 50.007812 22.9375 46.5 23.125 43.007812 Z M 23.125 43.007812 "/>
<path style=" stroke:none;fill-rule:nonzero;fill:rgb(55.686275%,83.529412%,98.039216%);fill-opacity:1;" d="M 91.492188 50.605469 C 95.859375 47.96875 100.242188 45.3125 104.804688 43.035156 C 104.8125 57.367188 104.835938 71.703125 104.800781 86.035156 C 102.410156 85.132812 100.304688 83.671875 98.09375 82.425781 C 95.867188 81.117188 93.53125 79.980469 91.449219 78.429688 C 91.164062 71.625 91.425781 64.8125 91.339844 58 C 91.335938 55.535156 91.210938 53.0625 91.492188 50.605469 Z M 91.492188 50.605469 "/>
<path style=" stroke:none;fill-rule:nonzero;fill:rgb(55.686275%,83.529412%,98.039216%);fill-opacity:1;" d="M 25.855469 88.546875 C 30.285156 85.773438 34.820312 83.144531 39.429688 80.6875 C 43.050781 82.4375 46.484375 84.550781 50.039062 86.429688 C 54.085938 88.742188 58.269531 90.8125 62.257812 93.214844 C 62.390625 98.492188 62.328125 103.773438 62.289062 109.054688 C 59.960938 108.289062 57.949219 106.867188 55.820312 105.695312 C 47.507812 101.007812 39.210938 96.296875 30.898438 91.605469 C 29.171875 90.671875 27.445312 89.710938 25.855469 88.546875 Z M 25.855469 88.546875 "/>
<path style=" stroke:none;fill-rule:nonzero;fill:rgb(55.686275%,83.529412%,98.039216%);fill-opacity:1;" d="M 85.945312 81.910156 C 86.75 81.464844 87.585938 81.078125 88.414062 80.6875 C 93.0625 83.140625 97.574219 85.839844 102.078125 88.535156 C 99.882812 90.089844 97.46875 91.285156 95.144531 92.617188 C 86.210938 97.699219 77.242188 102.710938 68.328125 107.820312 C 67.445312 108.300781 66.523438 108.703125 65.605469 109.105469 C 65.53125 103.796875 65.398438 98.476562 65.664062 93.171875 C 72.359375 89.300781 79.242188 85.757812 85.945312 81.910156 Z M 85.945312 81.910156 "/>
<path style=" stroke:none;fill-rule:nonzero;fill:rgb(10.980392%,47.058824%,75.294118%);fill-opacity:1;" d="M 41.398438 49.601562 C 48.882812 45.390625 56.394531 41.21875 63.984375 37.203125 C 71.507812 41.3125 79.023438 45.4375 86.507812 49.601562 C 79.054688 54.046875 71.519531 58.375 63.953125 62.632812 C 58.65625 59.804688 53.535156 56.660156 48.3125 53.699219 C 46.007812 52.335938 43.617188 51.117188 41.398438 49.601562 Z M 41.398438 49.601562 "/>
<path style=" stroke:none;fill-rule:nonzero;fill:rgb(10.980392%,47.058824%,75.294118%);fill-opacity:1;" d="M 39.730469 52.539062 C 46.304688 56.164062 52.730469 60.0625 59.28125 63.734375 C 60.320312 64.3125 61.324219 64.949219 62.3125 65.625 C 62.289062 73.5625 62.324219 81.5 62.289062 89.4375 C 55.632812 85.90625 49.085938 82.164062 42.445312 78.59375 C 41.59375 78.117188 40.710938 77.695312 39.945312 77.089844 C 39.578125 76.476562 39.769531 75.703125 39.703125 75.03125 C 39.757812 67.53125 39.699219 60.035156 39.730469 52.539062 Z M 39.730469 52.539062 "/>
<path style=" stroke:none;fill-rule:nonzero;fill:rgb(10.980392%,47.058824%,75.294118%);fill-opacity:1;" d="M 82.96875 55.449219 C 84.644531 54.460938 86.320312 53.464844 88.085938 52.632812 C 88.214844 60.757812 88.132812 68.882812 88.132812 77.007812 C 80.675781 81.25 73.117188 85.320312 65.59375 89.4375 C 65.578125 81.480469 65.574219 73.523438 65.59375 65.570312 C 71.300781 62.050781 77.195312 58.855469 82.96875 55.449219 Z M 82.96875 55.449219 "/>
</g>
</svg>
