<?xml version="1.0" encoding="UTF-8"?><svg width="520" height="418" viewBox="0 0 520 418" xmlns="http://www.w3.org/2000/svg" xmlns:xlink="http://www.w3.org/1999/xlink"><svg width="130" height="130" viewBox="-1 -1 130 130" id="babel" x="260" xmlns="http://www.w3.org/2000/svg"><path d="M0 0h128v128H0V0m88.945 28.93c-2.804 1.91-6.23 2.836-8.718 5.18l1.234.242a69.4 69.4 0 0 1-.672 1.168c-.031.292-.102.878-.129 1.175-.484.465-.965.938-1.45 1.407.298.023.892.078 1.185.101.113 4.79-.762 9.512-1.13 14.266-.257 4.082-.515 8.164-.605 12.246-.527.66-1.055 1.316-1.566 1.984.3.016.906.043 1.207.059.136.555.273 1.11.418 1.668.828-.2 1.648-.41 2.46-.64l.4 1.784c.288-.547.847-1.64 1.124-2.187.027 2.086-.219 4.18.121 6.258.434-2.352.09-4.766.45-7.133 3.374-1.438 6.562-3.281 9.937-4.719a42.486 42.486 0 0 0 4.492-2.18l.219-1.09c1.25-.57 2.527-1.128 3.562-2.054.274-.23.817-.692 1.086-.918.235.754.485 1.508.735 2.266 3.215-1.43 6.297-3.126 9.578-4.399l-.184 1.016c2.551-.703 4.707-2.27 7.004-3.516-.004-.117-.016-.36-.016-.477 2.696-.953 5.235-2.402 7.239-4.468-.63-.13-1.254-.266-1.88-.395l.255.926c-.59-.227-1.176-.445-1.754-.676-.602.317-1.207.614-1.817.903.653-.805 1.48-1.43 2.262-2.102-1.347.645-2.68 1.328-4.043 1.938.91-.032 1.684.124 1.403 1.21-.97-.03-2.04.266-2.899-.359.547-.09 1.633-.266 2.18-.352-.809-.554-1.664-.101-2.477.083l.13.449c-4.49 1.648-8.485 4.57-13.099 5.89.32-3.156-.054-6.32.239-9.476.582-1.438.394-3.016.441-4.528-.015-4.28.094-8.566-.117-12.84-.867.047-1.719.2-2.406.782.054-1.219.023-2.469.523-3.602.563.297.797.91 1.117 1.422h1.047c-.554-.695-1.086-1.414-1.633-2.11-.5.098-.992.196-1.488.298a139.06 139.06 0 0 1-.754-.774c-4.32 2.258-8.886 4.016-13.21 6.274M67.522 38.98c-3.617.926-6.617 3.27-9.445 5.614-1.61 1.328-2.672 3.156-4.016 4.734l1.223-.273a117.04 117.04 0 0 0-2.59 4.242l-.883.172a84.113 84.113 0 0 0-.21-1.969c-.368-1.742-.633-3.508-.985-5.25-.46-.176-.922-.352-1.383-.523a21.707 21.707 0 0 0-.422-.622 118.085 118.085 0 0 1-1.773 5.918c-1.258 4.024-2.64 8-3.992 11.993-.906 2.445-1.25 5.34-3.524 6.968-.625.805-1.43 1.438-2.296 1.954-.875.53-1.801.976-2.735 1.398a62.215 62.215 0 0 0-3.281-2.055c-.703.547-1.566.52-2.406.422 1.398-.625 1.25-2.266 2.093-3.328 1.196-1.867 2.36-3.79 3.235-5.836.484-3.172-.04-7.016-2.973-8.879-.43.36-.848.738-1.262 1.121-1.546-.082-3.109-.11-4.64-.367 1.484-.531 3.047-.82 4.625-.633-.153-.21-.461-.633-.617-.843-1.813.363-3.68-.446-5.485.152-5.441.808-9.843 4.336-13.984 7.683-2.137 1.594-3.422 3.97-5.098 5.985l1.239.062c-1.114 1.743-2.196 3.5-3.344 5.215a4.905 4.905 0 0 0-1.078 1.817c1.687.382 2.086-1.383 2.875-2.415.28-.046.843-.136 1.125-.18 1.867-2.155 3.453-4.597 5.765-6.343.18 4.57.094 9.148-.164 13.711-.137-.824-.207-1.664-.383-2.484.282 3.148.032 6.308-.093 9.464-.57 2.25-.258 4.594-.688 6.86-.223 1.363-.289 2.75-.363 4.129-.559 3.562-1.027 7.133-1.555 10.695a58.463 58.463 0 0 0 1.582-1.21l.399.335c.046-.336.144-.992.187-1.324-.148-.125-.445-.38-.598-.504.63-.398 1.262-.79 1.91-1.156-.245 2.406-.859 4.875-.507 7.265.992-1.812 1.312-3.882 1.726-5.882 2.258-1.57 4.43-3.274 6.36-5.239 1.633-1.773 4.226-2.457 5.43-4.652 2.585-2.332 3.992-5.598 6.101-8.305 1.766-2.265 3.023-4.86 3.992-7.555.07-1.242.274-2.601 1.57-3.14-.007-.149-.015-.438-.027-.582.95-.043 1.832-.39 2.707-.723-.375 2.813-1.18 5.54-1.68 8.328-.343 2.032-1.218 3.98-1.054 6.075.406.503.816 1.015 1.226 1.527.055-.36.164-1.067.22-1.422.316.234.624.469.937.703.27-1.113.609-2.21.96-3.305 1.407-4.656 2.587-9.367 3.907-14.043.457-1.293 1.398-2.277 2.441-3.113a17.897 17.897 0 0 0 2.246-1.527c.407-.098.805-.2 1.215-.3.645 3.007.485 6.085.762 9.124.36 4.703.488 9.422.75 14.133.379.023 1.14.078 1.523.101-.008-3.015.07-6.039-.218-9.043-.067-.214-.196-.644-.262-.863.207-.078.62-.25.824-.332.078 3.113.383 6.223.586 9.332-.16.528.383.664.7.867l-.177-.812c.04-8.371.047-16.781-.859-25.11.262-.707.523-1.414.797-2.113-.3-.386-.594-.773-.89-1.164-.29-2.379-.645-4.754-.68-7.152 2.687-1.742 4.554-4.406 6.828-6.625.226 0 .672-.016.89-.016-.172.11-.523.32-.699.43.41 3.086-.043 6.195-.02 9.297-.6 7.414-.98 14.875-2.343 22.21.379-.226 1.133-.663 1.508-.89a234.13 234.13 0 0 0-.016-1.656c.594.012 1.188.027 1.781.055-.336.257-1.008.78-1.34 1.042.7 1.301.278 2.778.13 4.153.906-1.363 1.3-2.961 1.55-4.555.63-.418 1.266-.828 1.903-1.234-.489 0-1.461.008-1.946.008.32-.442.61-.903.875-1.375-.012-.235-.039-.711-.047-.946.078 1.79 1.2.281 1.88.078.128-1.39 1.69-1.695 2.472-2.644.203-.012.61-.035.808-.043-.05-.29-.152-.86-.199-1.149.2.04.594.102.793.137 1.442-1.582 2.778-3.246 4.14-4.89-.37 1.918-2.151 2.996-3.206 4.503-2.07 2.047-4.281 3.957-6.207 6.157 2.094-.703 3.285-2.696 5.105-3.825 2.672-1.652 4.36-4.39 6.078-6.933 2.125-3.07 4.758-6.36 4.477-10.317-.14-1.816-2.16-2.425-3.414-3.347-.219.265-.64.793-.852 1.054.38-2.492 2.22-4.343 3.297-6.53.781-1.243.375-2.762.328-4.126a17.55 17.55 0 0 1-.523-1.648c-.672-.766-1.473-1.403-2.317-1.961-.043.238-.125.719-.168.96a49.993 49.993 0 0 1-3.054-.163c.828-.336 1.68-.61 2.5-.934-1.863-.168-3.766-.262-5.61.195zm0 0" fill="#f5da55"/><path d="M99.715 26.336c1.11-.453 2.191-.984 3.3-1.438-.343 1.086-.953 2.188-.445 3.329.625 3.085-.453 6.156-.297 9.257.149 3.172-.585 6.356.028 9.493.386 2.671-.637 5.515.511 8.043-.742.097-1.359.488-1.89.98-1.832.71-3.633 1.516-5.516 2.074.906-.707 1.852-1.363 2.739-2.097-5.254 1.054-9.72 4.25-14.778 5.867-.094-3.274.375-6.532.453-9.805.024-1.46 1.465-2.031 2.59-2.555 1.723-.742 3.121-2.062 4.832-2.851 2.024-.977 4.14-1.82 5.922-3.238-.46-.083-1.379-.239-1.84-.32.266-.927.996-1.317 1.875-1.442a11.87 11.87 0 0 0-.914-.969c.035.125.098.367.13.484-2.345.122-4.353 1.477-6.524 2.227a56.375 56.375 0 0 1-5.352 1.992c.05-1.586.148-3.172.25-4.75.316 0 .945 0 1.262.008-.364-.105-1.086-.313-1.45-.414.2-.305.587-.91.79-1.219.492-.937.683-2 .933-3.023 1.723-1.39 3.489-2.754 5.57-3.563.782-.441 1.555-.898 2.336-1.343l.012-.458c.188.012.559.04.75.055.582-.23 1.172-.457 1.766-.683-.028-.262-.078-.79-.102-1.051.305.137.914.414 1.219.55-.074-.218-.215-.663-.285-.882.762-.309 1.512-.633 2.27-.953-.036-.328-.11-.98-.145-1.305zm0 0M67.84 42.563c1.527-.79 3.293-.262 4.918-.274.039.828.047 1.691-.332 2.453-.574 2.14-1.621 4.102-2.75 5.992-.957 1.66-2.676 2.621-3.989 3.953-.75.618-1.382 1.555-2.43 1.649.095.43 1.04 1.953-.007 1.508-.39-4.407.02-8.899.492-13.309 1.297-.793 2.735-1.316 4.098-1.972zm0 0M62.328 61.688c2.692-1.57 4.844-3.907 7.586-5.399 1-.016 2-.02 3.008-.004-.008 1.07.047 2.145-.121 3.207-2.82 5.457-6.934 10.14-11.567 14.14.078-4.007.828-7.952 1.094-11.945zm0 0M19.98 59.617c2.137-1.25 4.84-2.847 7.23-1.25 0-.25.005-.762.005-1.023 1.535.48 2.285 1.82 1.91 3.375l-.79-.078c.009 1.547-.46 3.047-1.241 4.367-1.297 2.195-2.18 4.762-4.203 6.43-1.868 1.5-3.602 3.156-5.328 4.812-.333.07-.989.21-1.313.281-.383-4.719.5-9.386.563-14.094-.188-1.75 1.582-2.902 3.167-2.82zm0 0M47.938 58.227c.207-.032.632-.086.843-.11.2 2.063.477 4.14-.176 6.164-.21-.054-.625-.172-.835-.23l-.04.824c-.23-.074-.683-.227-.91-.297a92.279 92.279 0 0 0-.468 1.473c-.122-1.574.132-3.137.683-4.606a40.14 40.14 0 0 0 .903-3.218zm0 0M27.55 76.266c.083-.579.184-1.16.302-1.73 1.562 1.874 2 4.503.796 6.69-2.171 3.555-4.335 7.169-7.199 10.223-2.48 2.645-4.683 5.625-7.754 7.64.149-5.3.992-10.57 1.664-15.831 2.274-1.297 4.356-2.883 6.329-4.586 1.597-1.43 3.64-2.625 5.863-2.406zm0 0M19.395 97.398c2.488-2.773 5.082-5.453 7.34-8.43.132 1.427-1.118 2.344-1.922 3.344-1.688 1.805-3.008 4.126-5.418 5.086zm0 0M16.438 99.195c.39-.437.78-.875 1.18-1.312.097.387.304 1.156.405 1.543-1.433 1.234-2.585 2.816-4.171 3.863h-1.29c.376-.656.739-1.336 1.336-1.809-.418-.347-.835-.699-1.265-1.043.418-.152 1.242-.453 1.656-.601-.062.562-.117 1.14-.008 1.71.969-.554 2.055-1.12 2.156-2.35zm0 0" fill="#f5da55"/><path d="M88.945 28.93c4.325-2.258 8.89-4.016 13.211-6.274.188.196.563.578.754.774.496-.102.988-.2 1.488-.297.547.695 1.079 1.414 1.633 2.11h-1.047c-.32-.513-.554-1.126-1.117-1.423-.5 1.133-.469 2.383-.523 3.602.687-.582 1.539-.735 2.406-.781.21 4.273.102 8.558.117 12.84-.047 1.511.14 3.09-.441 4.527-.293 3.156.082 6.32-.239 9.476 4.614-1.32 8.61-4.242 13.098-5.89l-.129-.45c.813-.183 1.668-.636 2.477-.081-.547.085-1.633.261-2.18.351.86.625 1.93.328 2.899.36.28-1.087-.493-1.243-1.403-1.212 1.364-.609 2.696-1.292 4.043-1.937-.781.672-1.61 1.297-2.262 2.102.61-.29 1.215-.586 1.817-.903.578.23 1.164.45 1.754.676l-.254-.926c.625.13 1.25.266 1.879.395-2.004 2.066-4.543 3.515-7.239 4.468 0 .118.012.36.016.477-2.297 1.246-4.453 2.813-7.004 3.516l.184-1.016c-3.281 1.273-6.363 2.969-9.578 4.398-.25-.757-.5-1.511-.735-2.265-.27.226-.812.687-1.086.918-1.035.926-2.312 1.484-3.562 2.055l-.219 1.09a42.486 42.486 0 0 1-4.492 2.18c-3.375 1.437-6.563 3.28-9.938 4.718-.359 2.367-.015 4.781-.449 7.133-.34-2.079-.094-4.172-.12-6.258-.278.547-.837 1.64-1.126 2.187-.133-.593-.266-1.187-.398-1.785-.813.23-1.633.442-2.461.64-.145-.558-.281-1.112-.418-1.667-.301-.016-.906-.043-1.207-.059.511-.668 1.039-1.324 1.566-1.984.09-4.082.348-8.164.606-12.246.367-4.754 1.242-9.477 1.129-14.266-.293-.023-.887-.078-1.184-.101.484-.47.965-.942 1.45-1.407.026-.297.097-.883.128-1.175a69.4 69.4 0 0 0 .672-1.168l-1.234-.243c2.488-2.343 5.914-3.27 8.718-5.18m10.77-2.593c.035.324.11.977.144 1.305-.757.32-1.507.644-2.27.953.071.218.212.664.286.883-.305-.137-.914-.415-1.219-.551.024.262.074.789.102 1.05-.594.227-1.184.454-1.766.684a52.193 52.193 0 0 0-.75-.055l-.012.457c-.78.446-1.554.903-2.335 1.344-2.082.809-3.848 2.172-5.57 3.563-.25 1.023-.442 2.086-.934 3.023-.204.309-.59.914-.79 1.219.364.102 1.087.309 1.45.414-.317-.008-.946-.008-1.262-.008-.102 1.578-.2 3.164-.25 4.75a56.375 56.375 0 0 0 5.352-1.992c2.171-.75 4.18-2.105 6.523-2.227-.031-.117-.094-.359-.129-.484.324.305.63.633.914.969-.879.125-1.61.515-1.875 1.441.461.082 1.38.239 1.84.32-1.781 1.419-3.898 2.262-5.922 3.239-1.71.789-3.11 2.11-4.832 2.851-1.125.524-2.566 1.094-2.59 2.555-.078 3.273-.547 6.531-.453 9.805 5.059-1.617 9.524-4.813 14.778-5.867-.887.734-1.832 1.39-2.739 2.097 1.883-.558 3.684-1.363 5.516-2.074.531-.492 1.148-.883 1.89-.98-1.148-2.528-.124-5.372-.511-8.043-.614-3.137.12-6.32-.028-9.493-.156-3.101.922-6.172.297-9.257-.507-1.141.102-2.243.446-3.329-1.11.454-2.192.985-3.301 1.438zm0 0M67.523 38.98c1.844-.457 3.747-.363 5.61-.195-.82.324-1.672.598-2.5.934 1.015.093 2.039.133 3.055.164.042-.242.124-.723.167-.961.844.558 1.645 1.195 2.317 1.96.148.556.32 1.11.523 1.65.047 1.363.453 2.882-.328 4.124-1.078 2.188-2.918 4.04-3.297 6.532.211-.262.633-.79.852-1.055 1.254.922 3.273 1.531 3.414 3.347.281 3.958-2.352 7.247-4.477 10.317-1.718 2.543-3.406 5.281-6.078 6.933-1.82 1.13-3.011 3.122-5.105 3.825 1.926-2.2 4.136-4.11 6.207-6.157 1.055-1.507 2.836-2.585 3.207-4.503-1.363 1.644-2.7 3.308-4.14 4.89-.2-.035-.595-.097-.794-.137.047.29.149.86.2 1.149-.2.008-.606.031-.81.043-.78.95-2.343 1.254-2.472 2.644-.68.204-1.8 1.711-1.879-.078.008.235.035.711.047.946-.265.472-.554.933-.875 1.375.485 0 1.457-.008 1.946-.008-.637.406-1.274.816-1.903 1.234-.25 1.594-.644 3.192-1.55 4.555.148-1.375.57-2.852-.13-4.153a175.29 175.29 0 0 1 1.34-1.043 67.786 67.786 0 0 0-1.78-.054c.007.555.01 1.101.015 1.656-.375.227-1.13.664-1.508.89 1.363-7.335 1.742-14.796 2.344-22.21-.024-3.102.43-6.211.02-9.297.175-.11.526-.32.698-.43-.218 0-.664.016-.89.016-2.274 2.219-4.14 4.883-6.828 6.625.035 2.398.39 4.773.68 7.152.296.39.59.778.89 1.164-.273.7-.535 1.406-.797 2.114.906 8.328.898 16.738.86 25.109l.175.812c-.316-.203-.86-.34-.699-.867-.203-3.11-.508-6.219-.586-9.332-.203.082-.617.254-.824.332.066.219.195.649.262.863.289 3.004.21 6.028.218 9.043-.383-.023-1.144-.078-1.523-.101-.262-4.711-.39-9.43-.75-14.133-.277-3.039-.117-6.117-.762-9.125-.41.102-.808.203-1.215.3-.703.571-1.465 1.071-2.246 1.528-1.043.836-1.984 1.82-2.441 3.113-1.32 4.676-2.5 9.387-3.906 14.043-.352 1.094-.692 2.192-.961 3.305-.313-.234-.621-.469-.938-.703l-.219 1.422c-.41-.512-.82-1.024-1.226-1.527-.164-2.094.71-4.043 1.054-6.075.5-2.789 1.305-5.515 1.68-8.328-.875.332-1.758.68-2.707.723.012.144.02.433.028.582-1.297.539-1.5 1.898-1.57 3.14-.97 2.696-2.227 5.29-3.993 7.555-2.11 2.707-3.516 5.973-6.102 8.305-1.203 2.195-3.796 2.879-5.43 4.652-1.929 1.965-4.1 3.668-6.359 5.239-.414 2-.734 4.07-1.726 5.882-.352-2.39.262-4.86.508-7.265-.649.367-1.282.757-1.91 1.156.152.125.449.379.597.504-.043.332-.14.988-.187 1.324l-.399-.336c-.523.414-1.047.817-1.582 1.211.527-3.562.996-7.133 1.555-10.695.074-1.38.14-2.766.363-4.13.43-2.265.117-4.609.688-6.859.125-3.156.375-6.316.093-9.464.176.82.246 1.66.383 2.484.258-4.563.344-9.14.164-13.71-2.312 1.745-3.898 4.187-5.765 6.343-.282.043-.844.133-1.125.18-.79 1.03-1.188 2.796-2.875 2.414.226-.688.59-1.29 1.078-1.817 1.148-1.715 2.23-3.472 3.344-5.215l-1.239-.062c1.676-2.016 2.961-4.39 5.098-5.985 4.14-3.347 8.543-6.875 13.984-7.683 1.805-.598 3.672.21 5.485-.153.156.211.464.633.617.844-1.578-.187-3.14.102-4.625.633 1.531.258 3.094.285 4.64.367.415-.383.832-.761 1.262-1.12 2.934 1.862 3.457 5.706 2.973 8.878-.875 2.047-2.04 3.969-3.235 5.836-.843 1.063-.695 2.703-2.093 3.328.84.098 1.703.125 2.406-.422 1.11.656 2.21 1.328 3.281 2.055.934-.422 1.86-.867 2.735-1.398.867-.516 1.671-1.149 2.296-1.954 2.274-1.629 2.618-4.523 3.524-6.968 1.351-3.993 2.734-7.97 3.992-11.993.648-1.96 1.23-3.933 1.773-5.918.11.153.32.465.422.622.461.171.922.347 1.383.523.352 1.742.617 3.508.985 5.25.078.656.148 1.313.21 1.969l.883-.172a117.04 117.04 0 0 1 2.59-4.242l-1.222.273c1.343-1.578 2.406-3.406 4.015-4.734 2.828-2.344 5.828-4.688 9.445-5.614m.317 3.583c-1.363.656-2.8 1.18-4.098 1.972-.472 4.41-.883 8.903-.492 13.309 1.047.445.102-1.078.008-1.508 1.047-.094 1.68-1.031 2.43-1.648 1.312-1.333 3.03-2.293 3.988-3.954 1.129-1.89 2.176-3.851 2.75-5.992.379-.762.37-1.625.332-2.453-1.625.012-3.39-.516-4.918.273m-5.512 19.126c-.266 3.992-1.016 7.937-1.094 11.945 4.633-4 8.746-8.684 11.567-14.14.168-1.063.113-2.138.12-3.208a96.478 96.478 0 0 0-3.007.004c-2.742 1.492-4.894 3.828-7.586 5.398m-42.348-2.07c-1.585-.082-3.355 1.07-3.168 2.82-.062 4.708-.945 9.376-.562 14.094l1.313-.281c1.726-1.656 3.46-3.313 5.328-4.813 2.023-1.667 2.906-4.234 4.203-6.43.781-1.32 1.25-2.82 1.242-4.366l.789.078c.375-1.555-.375-2.895-1.91-3.375 0 .261-.004.773-.004 1.023-2.39-1.597-5.094 0-7.23 1.25m27.956-1.39a40.14 40.14 0 0 1-.902 3.218c-.55 1.47-.805 3.032-.683 4.606.113-.371.347-1.106.468-1.473.227.07.68.223.91.297l.04-.824c.21.058.625.176.835.23.653-2.023.375-4.101.176-6.164-.21.024-.636.078-.843.11M27.55 76.266c-2.223-.22-4.266.976-5.863 2.406-1.973 1.703-4.055 3.289-6.329 4.586-.671 5.262-1.515 10.531-1.664 15.832 3.07-2.016 5.274-4.996 7.754-7.64 2.863-3.055 5.028-6.669 7.2-10.223 1.203-2.188.765-4.817-.797-6.692-.118.57-.22 1.153-.301 1.73m-8.156 21.133c2.41-.96 3.73-3.28 5.418-5.085.804-1 2.054-1.918 1.921-3.344-2.257 2.976-4.851 5.656-7.34 8.43m-2.956 1.796c-.102 1.23-1.188 1.797-2.157 2.352-.11-.57-.054-1.149.008-1.711-.414.148-1.238.45-1.656.602.43.343.847.695 1.265 1.042-.597.473-.96 1.153-1.335 1.81h1.289c1.585-1.048 2.738-2.63 4.171-3.864-.101-.387-.308-1.156-.406-1.543-.398.437-.789.875-1.18 1.312zm0 0"/></svg><svg width="130" height="130" viewBox="-1 -1 130 130" id="es6" x="260" y="130" xmlns="http://www.w3.org/2000/svg"><path fill="#f26522" d="M0 0h128v128H0z"/><path d="M52.766 79.977h19.578v-5.325H58.813v-8.254h12.476V61.07H58.812v-7.722h13.532v-5.325H52.766zM98.5 71.293c0-6.379-.434-7.773-9.023-9.836-5.516-1.344-5.614-1.441-5.614-5.086 0-2.785.723-3.648 4.801-3.648 2.781 0 5.898.386 8.54.96l.671-5.09c-3.164-.718-6.523-1.054-9.309-1.054-8.109 0-10.75 2.883-10.75 8.688 0 6.765 1.059 8.253 8.782 9.98 5.761 1.246 5.855 1.535 5.855 5.086 0 3.074-.719 3.984-5.086 3.984-3.168 0-6.047-.574-9.023-1.488l-1.055 4.75c2.11 1.008 6.336 1.922 9.98 1.922 9.454 0 11.231-3.121 11.231-9.168zm11.133-11.902c0-4.891 2.351-5.852 8.015-5.852 1.008 0 3.118.145 4.508.43l.383-4.89c-1.437-.337-3.742-.579-5.516-.579-8.734 0-13.246 2.688-13.246 11.133v11.66c0 5.52 1.63 9.168 9.887 9.168 7.531 0 9.836-3.742 9.836-8.734v-2.305c0-5.516-2.352-7.918-8.156-7.918-2.063 0-4.031.289-5.711.863zm4.797 7.152c2.11 0 3.218.723 3.218 3.023v2.352c0 2.45-.96 3.504-3.984 3.504-3.023 0-4.031-.867-4.031-3.504v-4.367c1.344-.574 3.07-1.008 4.797-1.008zm0 0" fill="#fff"/></svg><svg width="130" height="288" viewBox="-1 -1 130 288" id="gulp" xmlns="http://www.w3.org/2000/svg"><g fill="#eb4a4b"><path d="M118.438 2.79c.734-.696 1.515-1.821 2.69-1.43 2.99.742 5.099 3.218 6.872 5.577v1.797c-10.156 10.68-20.258 21.422-30.43 32.086-.757.797-1.515 1.664-1.726 2.774-1.727 7.011-3.438 14.023-5.219 21.015 9.25.954 18.578 1.516 27.68 3.532 2.945.726 6.035 1.359 8.59 3.086 1.093.57 1.386 2.265.34 3.03-1.36 1.13-3.087 1.68-4.731 2.235-5.652 1.727-11.543 2.492-17.387 3.227-18.93 2.148-38.023 2.312-57.05 1.82-12.489-.57-25.036-1.297-37.333-3.746C6.977 76.922 2.906 76.172 0 73.43v-1.032c2.117-2.242 5.2-3.054 8.086-3.808 5.812-1.418 11.758-2.238 17.703-2.856C43.336 63.867 61 63.852 78.617 64.148c1.938-7.156 3.766-14.343 5.606-21.53.476-1.735.773-3.548 1.515-5.208.973-1.426 2.309-2.55 3.469-3.816 9.719-10.293 19.527-20.5 29.23-30.805M76.578 77.016c4.027.82 8.48 1.05 12.332-.586 1.09-.332.59-1.547-.113-1.98-1.156.937-2.547 1.519-4.04 1.573-3.214.18-6.695.438-9.515-1.414-1.898.793.117 2.29 1.336 2.407zm0 0"/><path d="M.914 77.906c4.281 1.774 8.82 2.79 13.375 3.563 14.39 2.304 28.984 2.96 43.54 3.258 15.726.156 31.483-.29 47.124-2.012 7.594-.91 15.254-1.988 22.414-4.79-2.648 24.872-5.375 49.743-8.035 74.614.063 1.004-.824 1.582-1.465 2.195-3.043 2.57-6 5.25-9.203 7.633-1.234.875-2.633 1.965-4.238 1.367.12-.71.242-1.453.781-1.984 3.223-3.898 6.883-7.594 8.941-12.297.793-1.793 1.094-4.195-.382-5.73-1.907-1.989-5.094-2.246-7.547-1.192-3.106 1.297-5.586 3.66-7.89 6.055.132-1.3.405-2.598.28-3.906-.171-1.586-2.554-2.024-3.5-.89-2.328 2.62-2.75 6.253-4.144 9.35-2.578 2.829-5.496 5.372-8.578 7.653-1.598 1.129-3.301 2.348-5.348 2.348-.531-2.567.766-4.965 1.61-7.305 3.714-9.29 7.421-18.586 11.394-27.766.84-2.129 2.465-4.304 1.77-6.703-.708-1.398-2.563-1.547-3.844-.969-1.547.782-1.985 2.582-2.614 4.047-4.636 12.024-9.656 23.91-14.058 36.016-1.54 1.484-3.484 2.695-5.61 3.101-.96.313-1.957-.492-1.777-1.511.38-4.809 2.707-9.137 4.512-13.52.656-1.633 1.55-3.445.922-5.222-.489-1.309-2.156-1.852-3.336-1.106-1.18.961-1.711 2.469-2.25 3.848-1.485 4.504-3.637 8.84-6.59 12.574-1.914 2.336-4.559 4.672-7.816 4.266-1.063-2.54.101-5.274.945-7.7 1.297-3.668 3.578-6.886 4.922-10.527.672-3.066-4.215-3.672-5.32-1.18-2.852 5.297-5.094 10.946-6.794 16.72-.652 2.382-1.257 5.194.22 7.405 1.581 2.207 4.73 2.13 7.105 1.532 4.117-1.012 7.172-4.211 9.468-7.594-.218 1.805-.468 3.64-.195 5.46.238 1.712 2.117 2.727 3.734 2.45 2.758-.437 5.122-2.047 7.38-3.59.73 1.664 1.812 3.473 3.843 3.594 4.98.25 8.723-3.547 12.403-6.328-2.399 6.062-5.555 11.797-7.977 17.844-.613 1.714-1.398 3.843-.297 5.523 1.227 1.004 3.25.863 4.352-.285 1.265-1.153 1.816-2.828 2.379-4.395 2.03-5.672 4.144-11.324 6.707-16.78 2.421-5.716 5.636-11.345 10.578-15.255 1.554-1.285 3.539-1.918 5.554-1.648.446 1.41-.492 2.64-1.242 3.734-2.746 3.77-6.164 7.05-8.453 11.145-.98 1.656-1.117 4.12.516 5.422 2.199 1.609 5.207 1.203 7.644.406 4.535-1.727 7.98-5.285 11.57-8.406a10128.438 10128.438 0 0 1-6.023 52.25c-1.121 1.796-3.488 2.3-5.324 3.136-12.18 4.29-25.16 5.762-37.992 6.38-14.532.382-29.184-.821-43.27-4.524-3.469-1.024-7.058-1.98-10.168-3.887-1.265-.606-1.133-2.121-1.258-3.293-1.25-13.82-2.66-27.629-3.906-41.453 2.106.805 4.445 1.351 6.652.586 5.137-1.649 8.918-5.688 12.73-9.281-1.085 4.238-2.64 8.351-3.632 12.617-.21 1.258-.289 2.578.047 3.824.313 1.121 1.832 1.512 2.707.785 1.395-1.004 2.121-2.652 2.59-4.25a706.64 706.64 0 0 1 5.383-18.176c1.43-4.597 3.828-8.964 4.215-13.84.082-1.105.113-2.53-.965-3.19-1.348-.966-3.364-.231-4.063 1.19-1.922 3.993-2.308 8.684-5.043 12.29a49.431 49.431 0 0 1-8.105 8.718c-1.809 1.368-3.742 2.961-6.117 3.032-1.704-.125-2.637-1.825-2.934-3.32-.66-3.555.078-7.184 1.004-10.622 1.605-5.722 4.2-11.129 7.273-16.191 2.492-3.922 5.328-7.805 9.235-10.438 1.828-1.234 4.375-2 6.383-.715 2.656 1.532 2.917 5.317 5.656 6.676 2.988.375 3.703-3.558 2.789-5.703-1.735-3.316-4.715-6.195-8.426-7.117-2.77-.637-5.723-.11-8.223 1.18-4.062 2.058-7.437 5.238-10.25 8.773a61.917 61.917 0 0 0-10.687 20.512c-.125-.196-.39-.594-.52-.793-2.34-21.801-4.73-43.602-7.09-65.406a45.287 45.287 0 0 1-.148-2.282zm0 0"/><path d="M17.86 218.246c9.066 3.281 18.617 4.996 28.171 6.043 10.367 1.113 20.852 1.258 31.235.344 10.8-.88 21.546-2.805 31.828-6.27-2.188 4.762-5.461 8.996-7.469 13.809-.89 14.57-1.672 29.148-2.523 43.723.039 1.55-1.196 2.722-2.41 3.488-2.856 1.758-6.122 2.664-9.348 3.43-9.125 2.007-18.516 2.414-27.828 2.207-8.036-.41-16.176-1.082-23.832-3.7-2.457-1.007-5.766-2.004-6.524-4.882-1.129-14.555-2.137-29.125-3.234-43.684-.317-1.543-1.395-2.793-2.117-4.156-1.973-3.457-4.13-6.813-5.95-10.352zm0 0"/></g></svg><svg width="130" height="130" viewBox="-1 -1 130 130" id="javascript" x="390" xmlns="http://www.w3.org/2000/svg"><path fill="#f7df1e" d="M0 0h128v128H0z"/><path d="M33.656 106.969l9.797-5.93c1.89 3.352 3.61 6.184 7.73 6.184 3.954 0 6.446-1.543 6.446-7.559V58.766h12.027v41.07c0 12.457-7.304 18.125-17.957 18.125-9.62 0-15.207-4.984-18.043-10.996M76.191 105.68l9.793-5.672c2.579 4.21 5.93 7.305 11.86 7.305 4.984 0 8.16-2.493 8.16-5.93 0-4.125-3.262-5.586-8.762-7.992l-3.008-1.29c-8.68-3.695-14.437-8.335-14.437-18.128 0-9.02 6.875-15.895 17.617-15.895 7.648 0 13.145 2.664 17.098 9.625l-9.367 6.012c-2.06-3.695-4.293-5.153-7.73-5.153-3.524 0-5.759 2.231-5.759 5.153 0 3.605 2.235 5.07 7.39 7.3l3.009 1.29c10.222 4.382 15.976 8.851 15.976 18.906 0 10.824-8.504 16.754-19.93 16.754-11.171 0-18.39-5.328-21.91-12.285"/></svg><svg width="130" height="130" viewBox="-1 -1 130 130" id="jquery" x="390" y="130" xmlns="http://www.w3.org/2000/svg"><path d="M0 0h71.266c-2.942 4.078-4.496 9.3-3.196 14.266 1.688 5.867 5.5 11.28 10.907 14.254 4.109 2.152 8.843 3.082 13.46 2.68 4.696-.54 9.336-3.075 11.626-7.325-3.094 1.074-6.196 2.477-9.547 2.395-6.172.285-12.067-2.668-16.516-6.77-3.938-3.55-6.508-8.676-6.68-14-.105-1.844.203-3.676.422-5.5H128v128H8.824c1.965-.5 3.645-1.938 4.254-3.898 2.031-6.141 3.18-12.532 4.453-18.86-1.976.016-3.953.016-5.926-.015-2.156 5.18-1.8 11.058-4.293 16.113-.542 1.527-2.472 1.097-3.703 1.62-.601 1.618-.882 3.33-1.062 5.04H0V0m49.094 9.625c-5.38 9.188-3.727 21.188 2.05 29.797 4.989 6.953 12.036 12.828 20.489 14.89 4.5 1.32 9.258 1.157 13.887.833 6.73-1.043 13.46-3.872 17.972-9.137 1.957-2.36 3.938-4.922 4.559-8-3.57 3.972-8.102 7.137-13.293 8.554-8.14 2.594-17.113.688-24.39-3.476-5.415-2.969-10.446-6.953-13.79-12.211-3.617-5.367-4.914-12.016-4.75-18.395.29-2.652.598-5.293 1.078-7.918a20.917 20.917 0 0 0-3.812 5.063m-23.27 7.656c-2.543 4.02-4.668 8.446-5.23 13.227-.782 4.89-.418 9.906.57 14.742 4.273 18.258 19.797 33.484 38.281 36.969 7.282 1.203 14.852 1.21 21.992-.79 10.5-3.242 20.028-10.656 24.458-20.878-1.38 1.054-2.61 2.285-3.918 3.418-5.422 4.351-12.141 6.82-18.985 7.742-5.707.34-11.531.46-17.11-.98-6.546-1.489-12.39-4.989-17.847-8.778-1.887-1.25-3.527-2.797-5.265-4.223-8.235-7.394-13.79-18.042-14.036-29.207-.285-5.265.328-10.53 1.383-15.683-1.96.824-3.012 2.848-4.293 4.441M23.242 98.29c-3.234 4.203-4.476 9.785-3.742 14.996.508 2.88 2.672 5.555 5.64 6.07 5.965.72 11.985.356 17.97.176.464-1.71.968-3.414 1.265-5.172-.938-.039-1.867-.078-2.797-.101 1.055-3.149 2.328-6.235 3.04-9.485.859-4.183-1.274-9.003-5.348-10.625-5.426-2.308-12.512-.734-16.028 4.141m95.5-2.559c-2.062 2.942-4.039 5.942-6.11 8.864-.862 1.18-1.484 2.594-2.718 3.445-.238-.93-.52-1.852-.758-2.781-2.082-.016-4.164.008-6.234-.043.281 3.527 2.195 6.73 2.203 10.3-.25 1.376-.695 2.704-1.023 4.063 2.093-.016 4.199.11 6.28-.195 2.141-6.805 7.067-12.125 11.337-17.656 1.414-1.903 2.976-3.762 3.828-6-2.274-.008-4.54.003-6.805.003M49.11 98.766c-1.242 4.671-2.156 9.445-2.82 14.234-.43 2.508.621 5.605 3.3 6.305 4.419.715 8.919.52 13.349.078 1.312-6.79 2.859-13.531 4.222-20.313a36.391 36.391 0 0 0-5.613-.02c-.961 4.513-2.067 9.005-2.996 13.528a6.473 6.473 0 0 1-.567 1.625c-1.714.098-3.43-.027-5.14.094-.274-.742-.63-1.484-.524-2.305.242-4.472 2.094-8.71 2.086-13.21-1.765.058-3.531.07-5.297-.016m22.578 1.91c-2.886 1.969-3.68 5.652-4.468 8.84-.446 2.664-1.395 5.894.57 8.171 1.617 2.008 4.387 1.915 6.711 2.07 3.242-.097 6.54.329 9.73-.417.332-1.567.653-3.137 1.13-4.66-3.797-.727-7.72.07-11.524-.532-1.106-.484-1.094-1.71-1.035-2.734 4.496-.047 8.988 0 13.48-.031.399-3.028 1.547-6.172.52-9.195-.696-2.079-2.82-3.25-4.864-3.649-3.507-.5-7.347-.047-10.25 2.137m-58.832-1.88a239.08 239.08 0 0 0-1.136 5.016c2 .086 4.008.008 6.008.11.484-1.672.992-3.36 1.117-5.102-1.992-.007-3.989.016-5.989-.023m78.153 2.613c-1.113 6.09-2.711 12.082-3.793 18.168 1.984 0 3.98.094 5.95-.226.858-5.11 2.147-10.149 3.065-15.247 4.153.012 8.31.004 12.465 0 .016-1.46-.273-2.964-1.125-4.175-.992-1.164-2.68-1.09-4.07-1.125-3.84.047-7.68-.04-11.516.039-.836.547-.71 1.71-.976 2.566zm0 0"/><path d="M31.625 99.02c2.188-.59 5.133-.106 6.188 2.14.945 1.824.18 3.942-.293 5.79-.723 2.402-1.106 4.925-2.055 7.237-2.54-.015-5.207.446-7.625-.554-1.176-.602-2.152-1.766-1.98-3.164.203-3.031 1.062-6.016 2.328-8.766.625-1.414 1.972-2.312 3.437-2.683zm0 0M73.992 106.719c.516-2.614 3.617-3.899 5.93-2.727 1.098.403 1.281 1.649 1.312 2.664-2.414.047-4.828.004-7.242.063zm0 0"/><path d="M71.266 0h.476c-.219 1.824-.527 3.656-.422 5.5.172 5.324 2.743 10.45 6.68 14 4.45 4.102 10.344 7.055 16.516 6.77 3.351.082 6.453-1.32 9.546-2.395-2.289 4.25-6.93 6.785-11.624 7.324-4.618.403-9.352-.527-13.461-2.68-5.407-2.972-9.22-8.386-10.907-14.253C66.77 9.3 68.324 4.078 71.266 0zm0 0" fill="#fff"/><path d="M49.094 9.625a20.917 20.917 0 0 1 3.812-5.063c-.48 2.625-.789 5.266-1.078 7.918-.164 6.38 1.133 13.028 4.75 18.395 3.344 5.258 8.375 9.242 13.79 12.21 7.277 4.165 16.25 6.071 24.39 3.477 5.191-1.417 9.722-4.582 13.293-8.554-.621 3.078-2.602 5.64-4.559 8-4.512 5.265-11.242 8.094-17.972 9.137-4.63.324-9.387.488-13.887-.833-8.453-2.062-15.5-7.937-20.488-14.89-5.778-8.61-7.43-20.61-2.051-29.797zm0 0" fill="#fff"/><path d="M25.824 17.281c1.281-1.593 2.332-3.617 4.293-4.441-1.055 5.152-1.668 10.418-1.383 15.683.246 11.165 5.801 21.813 14.036 29.207 1.738 1.426 3.378 2.973 5.265 4.223 5.457 3.79 11.3 7.29 17.848 8.777 5.578 1.442 11.402 1.32 17.11.98 6.843-.92 13.562-3.39 18.984-7.741 1.308-1.133 2.539-2.364 3.918-3.418-4.43 10.222-13.957 17.636-24.457 20.879-7.141 2-14.711 1.992-21.993.789-18.484-3.485-34.008-18.711-38.28-36.969-.99-4.836-1.352-9.852-.571-14.742.562-4.781 2.687-9.207 5.23-13.227zm0 0M23.242 98.29c3.516-4.876 10.602-6.45 16.028-4.142 4.074 1.622 6.207 6.442 5.347 10.625-.71 3.25-1.984 6.336-3.039 9.485.93.023 1.86.062 2.797.101-.297 1.758-.8 3.461-1.266 5.172-5.984.18-12.004.543-17.968-.176-2.97-.515-5.133-3.19-5.641-6.07-.734-5.21.508-10.793 3.742-14.996m8.383.73c-1.465.372-2.813 1.27-3.438 2.684-1.265 2.75-2.125 5.734-2.328 8.766-.172 1.398.805 2.562 1.98 3.164 2.419 1 5.087.539 7.626.555.95-2.313 1.332-4.836 2.055-7.239.472-1.847 1.238-3.965.292-5.789-1.054-2.246-4-2.73-6.187-2.14zm0 0M118.742 95.73c2.266 0 4.531-.011 6.805-.003-.852 2.238-2.414 4.097-3.828 6-4.27 5.53-9.196 10.851-11.336 17.656-2.082.305-4.188.18-6.281.195.328-1.36.773-2.687 1.023-4.062-.008-3.57-1.922-6.774-2.203-10.301 2.07.05 4.152.027 6.234.043.239.93.52 1.851.758 2.781 1.234-.852 1.856-2.266 2.719-3.445 2.07-2.922 4.047-5.922 6.11-8.864zm0 0M49.11 98.766c1.765.086 3.53.074 5.296.015.008 4.5-1.843 8.739-2.086 13.211-.105.82.25 1.563.524 2.305 1.71-.121 3.426.004 5.14-.094a6.473 6.473 0 0 0 .567-1.625c.93-4.523 2.035-9.016 2.996-13.527a36.391 36.391 0 0 1 5.613.02c-1.363 6.78-2.91 13.523-4.222 20.312-4.43.441-8.93.637-13.348-.078-2.68-.7-3.73-3.797-3.3-6.305.663-4.79 1.577-9.563 2.82-14.234zm0 0M71.688 100.676c2.902-2.184 6.742-2.637 10.25-2.137 2.042.398 4.167 1.57 4.863 3.648 1.027 3.024-.121 6.168-.52 9.196-4.492.031-8.984-.016-13.48.031-.059 1.023-.07 2.25 1.035 2.734 3.805.602 7.727-.195 11.523.532-.476 1.523-.796 3.093-1.129 4.66-3.19.746-6.488.32-9.73.418-2.324-.156-5.094-.063-6.71-2.07-1.966-2.278-1.017-5.508-.571-8.172.789-3.188 1.582-6.871 4.469-8.84m2.304 6.043c2.414-.059 4.828-.016 7.242-.063-.03-1.015-.214-2.261-1.312-2.664-2.313-1.172-5.414.113-5.93 2.727zm0 0M12.855 98.797c2 .039 3.997.016 5.989.023-.125 1.743-.633 3.43-1.117 5.102-2-.102-4.008-.024-6.008-.11.36-1.68.742-3.347 1.136-5.015zm0 0" fill="#fff"/><path d="M91.008 101.41c.265-.855.14-2.02.976-2.566 3.836-.078 7.676.008 11.516-.04 1.39.036 3.078-.038 4.07 1.126.852 1.21 1.14 2.715 1.125 4.175-4.156.004-8.312.012-12.465 0-.918 5.098-2.207 10.137-3.066 15.247-1.969.32-3.965.226-5.95.226 1.083-6.086 2.68-12.078 3.794-18.168zm0 0M11.605 105.227c1.973.03 3.95.03 5.926.015-1.273 6.328-2.422 12.719-4.453 18.86-.61 1.96-2.289 3.398-4.254 3.898H2.547c.18-1.71.46-3.422 1.062-5.04 1.23-.522 3.16-.093 3.704-1.62 2.492-5.055 2.136-10.934 4.292-16.113zm0 0" fill="#fff"/></svg><svg width="130" height="130" viewBox="-1 -1 130 130" id="npm" y="288" xmlns="http://www.w3.org/2000/svg"><path d="M0 40h128v45.336H64v8H34.664v-8H0zm0 0" fill="#d50000"/><path d="M8 77.336h13.336V56h8v21.336h5.328V48H8zm0 0M42.664 48v37.336H56v-8h13.336V48zM64 69.336h-8V56h8zm0 0M77.336 48v29.336h13.328V56h8v21.336h8V56h8v21.336H120V48zm0 0" fill="#fff"/></svg><svg width="129" height="128" viewBox="-1 -1 129 128" id="postcss" x="260" y="288" xmlns="http://www.w3.org/2000/svg"><g fill="#dd3a0a"><path d="M53.023 1.188C56.04.938 59.008.203 62.035.125c5.61-.031 11.203.418 16.754 1.156 4.324.578 8.36 2.324 12.496 3.63 6.117 2.116 11.57 5.734 16.649 9.694 2.382 1.817 3.875 4.477 5.882 6.66 3.739 4.88 7.329 10.005 9.391 15.868 2.89 6.851 3.242 14.394 3.543 21.73.324 5.719-.54 11.41-1.398 17.047-.434 3.242-2.082 6.153-2.7 9.348.52 1.676 1.657 3.062 2.524 4.562-1.48.203-2.996.215-4.43.649-1.906 2.824-3.21 6.023-5.066 8.883-2.39 3.804-5.485 7.117-8.774 10.148-1.804 1.715-3.941 3.059-5.629 4.902-1.476.895-3.125 1.465-4.574 2.414-3.344 2.32-7.308 3.457-11.121 4.735-.992.297-1.625 1.156-2.258 1.914-1.504.484-3.074.676-4.644.414.004.2.011.59.011.785-1.906.156-3.804.422-5.617 1.063.324-.29.64-.579.957-.868.496-.12 1.48-.359 1.977-.484-2.746.012-5.5.152-8.203.656 1.53.004 3.058-.066 4.586-.09v.934c-1.762.086-3.524.164-5.278.324H63.98l.676-.668c-4.293-.469-8.683-.234-12.863-1.457-2.777-.863-5.621-1.46-8.418-2.234-4.512-1.281-8.395-3.992-12.43-6.29-2.87-1.652-5.37-3.87-7.593-6.316-2.098-.617-5.07-1.945-5.024-4.5-1.816-2.011-3.465-4.164-4.691-6.597 1.23 1.097 2.48 2.172 3.789 3.172-1.149-2.313-2.637-4.45-3.653-6.832.372.035.743.058 1.114.113 1.562 4.484 5.945 6.738 8.96 10.066 1.38 1.137 2.965 1.989 4.27 3.227 2.258 2.082 5.195 3.082 7.781 4.656 2.157 1.344 4.797 1.613 6.875 3.129 2.395 1.644 5.243 2.285 8.059 2.766 4.125 1.136 8.402 1.558 12.652 1.945 4.649-.031 9.239-1.008 13.852-1.524 3.367-.308 6.324-2.062 9.46-3.171 1.864-.63 3.493-1.75 5.165-2.758a70.614 70.614 0 0 0 10.96-7.48c2.466-2.528 5.513-4.65 7.024-7.962.79-1.796 1.801-3.472 2.922-5.074.164-.14.496-.418.66-.558.297-.754.602-1.5.926-2.247-6.312-.152-12.613.38-18.922.672-4.93.364-9.89.059-14.816.516-2.942.262-5.903.2-8.84.55-8.941.9-17.941.438-26.898.977-6.063.22-12.125.25-18.188.145-6.812.281-13.66-.156-20.324-1.621 1.89-2.028 4.894-1.785 7.422-1.942 7.484-.449 14.984-.074 22.476-.39.188-2.246.215-4.5.223-6.75.273-.227.816-.676 1.09-.907-1.133-3.738-.797-7.668-.012-11.445-.184.074-.55.235-.734.309-.121-1.274-.414-2.555-.223-3.832.715-4.504-.262-9.051.258-13.567-.004-4.039.574-8.054.523-12.097-4.515 5.226-8.144 11.27-13.57 15.66.465-.848.93-1.688 1.406-2.524-.422.29-1.273.875-1.695 1.172 5.566-7.707 10.844-15.64 16.11-23.57 3.722-5.047 7.429-10.11 11.343-15.012 2.457-3.71 5.121-7.27 7.676-10.91-4.387.387-8.883.34-13.11 1.738-10.21 2.649-19.035 9.125-25.972 16.957-2.77 3.465-5.028 7.317-7.235 11.164-2.972 4.993-5.175 10.43-6.652 16.047-.7 2.563-.312 5.285-1.043 7.84-.574 1.367-1.492 2.555-2.25 3.82-.867-3.683-1.094-7.492-.883-11.27.13-3.081 1.239-5.987 1.989-8.944.882-3.66 2.828-6.914 4.515-10.243 2.945-5.628 7-10.562 11.168-15.308 2.836-3.024 6.25-5.41 9.676-7.695 7.09-4.856 15.598-7.165 24.062-7.957M65.84 5.163c2.75 3.082 5.129 6.48 7.62 9.77 4.313 6.109 8.981 11.96 13.08 18.222.886 1.028 1.597 2.797 3.21 2.653 1.23.046 2.46.101 3.684.222-.133 2.332-.418 4.723.144 7.024.856 1.597 2.043 2.984 3.027 4.508 1.493 2.144 2.665 4.492 4.122 6.656 3.347 4.543 6.234 9.394 9.628 13.898 2.446 3.93 4.926 7.844 7.567 11.653.43-.383.855-.778 1.27-1.176-.395-.02-1.196-.055-1.594-.07.136-.57.289-1.133.43-1.696.171-.7.206-1.476.726-2.031-.07-.453-.203-1.363-.274-1.817.286.516.84 1.543 1.122 2.06.347-3.056.3-6.142.765-9.188.207-.832-.125-1.606-.445-2.348a72.66 72.66 0 0 1-.149-1.535c.254.027.762.09 1.016.12-.3-1.48-.418-3.015-1.102-4.374l1.508-.067c-.422-.023-1.257-.082-1.675-.105l.03-.484c.321.035.962.101 1.282.136-.043-1.61-.035-3.207-.098-4.816.07-1.95-1.41-3.52-1.398-5.473-.195-3.992-1.559-7.777-2.793-11.539-.79-2.422-2.402-4.441-3.89-6.457-3.778-4.496-7.356-9.207-11.66-13.226-4.329-2.707-9.032-4.766-13.77-6.645C80.39 6.461 73.09 5.52 65.84 5.164m-12.102 13.41c-1.004 1.04-1.52 2.453-2.644 3.39-.899.743-1.457 1.774-1.82 2.868l-.169-.215c-.656 1.945-2.398 3.145-3.515 4.79-2.028 2.78-4.008 5.6-6.05 8.374 5.202.063 10.405-.14 15.597-.574a147.1 147.1 0 0 0 16.172-.809c3.699-.433 7.418-.03 11.129-.113C75.75 26.453 69.492 16.297 61.852 7.16c-3.012 3.57-5.575 7.504-8.114 11.414M72.82 41.785c3.067 1.563 6.496 2.703 8.86 5.332 2.867 3.047 5.117 6.711 6.312 10.742-.031-4.304.09-8.613-.242-12.906 0-1.293-.805-2.398-1.605-3.344-4.434-.113-8.883.07-13.325.176m-30.316 1.367c.133 4.02-.106 8.035-.223 12.051 1.742-3.047 4.239-5.52 6.594-8.082 1.691-1.793 3.738-3.191 5.79-4.527-4.06.039-8.106.414-12.161.558m20.121 1.899c.031.215.094.64.117.855-.304.106-.918.309-1.222.407l1.078-1.04c-2.856.16-5.29 1.739-7.848 2.832l.309.637-.79-.16.07.898a85.09 85.09 0 0 1-.812-.457c-.984 1.262-2.304 2.168-3.53 3.172-1.009 1.168-2.071 2.325-2.806 3.692-1.695 1.347-2.046 3.64-3.058 5.46.09 1.512.133 4.423-2.055 4.227-.055 3.254.031 6.508.031 9.766.2 4.46.809 8.906.668 13.375 4.618-.098 9.243-.031 13.856-.281-1.606-.864-3.375-1.368-4.98-2.23-1.4-.731-2.16-2.157-3.055-3.395-.243-.102-.73-.297-.97-.395-.683-1.293-1.702-2.344-2.581-3.492-1.11-1.586-1.852-3.418-2.313-5.293.313.266.938.789 1.25 1.047-.07-.492-.21-1.485-.277-1.98 1.348 2.222 3.363 4.226 3.809 6.874 1.648.004 2.308 1.93 3.672 2.606 2.71 1.523 5.644 2.992 8.835 2.941 5.22.317 10.926-.176 15.184-3.543 1.95-1.183 3.07-3.226 4.309-5.07a16.526 16.526 0 0 0 2.402-6.692c1.223-2.687 1.144-5.664 1.691-8.511-.18-4.856-2.836-9.61-7.015-12.114-2.164-1.386-4.172-3.101-6.64-3.921-2.38-.672-4.907-.633-7.329-.215m30.883 7.617c.008 3.582-.528 7.184-.082 10.75.062 1.508-.39 2.988-.239 4.5-.019 1.785.415 3.598-.039 5.352 1.579 1.472.559 3.851 1.274 5.703-.414.472-.824.949-1.25 1.41-.012.383-.024 1.148-.035 1.527.226.547.437 1.102.648 1.656l-.805-.109c.024 1.18.051 2.363.118 3.547 2.859.18 5.722.062 8.574-.211 5.168-.332 10.371.184 15.531-.324-3.004-3.606-5.598-7.524-8.465-11.235-4.504-5.898-7.98-12.507-12.468-18.425-.961-1.352-1.797-2.786-2.762-4.141M81.895 81.836c-2.422 2.164-4.868 4.398-7.797 5.852 4.797-.18 9.609-.106 14.39-.54a88.951 88.951 0 0 1-1.113-14.332c-1.691 3.079-2.965 6.485-5.48 9.02zm0 0"/><path d="M15.164 64.82c.785-1.226 1.969-2.125 2.926-3.21a331.85 331.85 0 0 1-.504 2.105c-.66.687-1.273 1.41-1.875 2.152a2.314 2.314 0 0 1-.547-1.047zm0 0M3.836 64.922c.348-.16 1.035-.48 1.379-.64.281 2.648 1.344 5.222.87 7.917.349.309.7.614 1.06.914-.415-.035-1.235-.097-1.649-.133l.016 1.903c-.328-1.547-.645-3.145-1.64-4.414-.38-1.867-.696-3.754-1.095-5.614l1.211.918c-.035-.214-.113-.636-.152-.851zm0 0M6.625 78.328c1.457-.758.023 1.68 0 0zm0 0"/></g></svg><svg width="130" height="202" viewBox="-1 -1 130 152" id="ramda" x="130" xmlns="http://www.w3.org/2000/svg"><path d="M36.016 0h7.234c4.09.754 8.21 1.617 12 3.39 10.07 4.641 17.906 13.712 21.188 24.266 1.078 2.625.578 5.813 2.695 7.977 3.125.195 6.289-.102 9.375.535 8.476 2.125 16.25 7.152 21.5 14.16 2.39 4.219 4.066 8.852 5 13.621 1.402 7.059 2.476 14.176 3.527 21.301 1.14 8.86 2.832 17.64 4.238 26.469.774 4.582 1.426 9.187 2.266 13.765.785 7.18 1.61 14.391 1.234 21.641-2.445-.633-4.367-2.602-5.289-4.898-1.453-4.215-1.664-8.707-2.34-13.079-.292-2.027-2.433-2.785-4.234-2.812-1.808 1.2-3.05 3.406-2.3 5.586 1.43 3.484 4.16 6.187 6.632 8.957 1.403 1.531 1.582 3.871 3.266 5.184a9.358 9.358 0 0 0 3.851 2.171c-.02.286-.062.848-.09 1.133-3.05.805-6.18-.047-9.269.32-3.688-.039-7.445.512-11.063-.39-.68-1.824-1.492-3.594-2.171-5.414-.715-1.946-1.97-3.649-2.606-5.621-.855-2.7-2.543-5.032-3.32-7.762-1.778-3.738-3.375-7.57-5.278-11.254-1.136-3.457-3.101-6.558-4.292-9.992-1.575-2.817-2.43-5.95-3.985-8.77-1.496-2.656-2.293-5.625-3.793-8.27-1.305-3.566-3.234-6.85-4.484-10.437-1.086-2.293-2.297-4.535-3.047-6.976-1.762-3.051-2.711-6.48-4.469-9.528-.484-.859-.75-1.812-.953-2.765l-1.055-1.149C54.047 83.352 42.97 105.81 31.36 127.977c-3.547 6.933-7.199 13.82-10.324 20.953-.676.113-1.348.28-2.035.25-5.68-.508-11.39-.157-17.078-.352C19.07 116.344 35.91 83.695 52.844 51.102c.695-1.29 1.32-2.622 1.676-4.047-1.668.449-3.235 1.172-4.81 1.867-3.679 1.558-7.733 1.851-11.694 1.683-4.336.06-8.414-1.582-12.47-2.902 1.845-1.578 3.653-3.242 5.837-4.344 7.297-3.875 15.695-5.675 23.945-5.156-.695-2.867-2.336-5.328-3.734-7.883 1.578-3.73 4.781-6.64 8.11-8.851l.28-.989c-4.851-.347-8.824 2.993-11.879 6.356-1.804-1.461-3.945-2.387-5.917-3.582.511-1.754.789-3.574 1.406-5.293.664-1.504 1.742-2.844 1.953-4.523-3.832 1.21-6.082 4.953-7.32 8.542-2.446-.488-4.954-.34-7.426-.277-.567-2.781-.645-5.617-.41-8.437-3.133 1.859-2.883 6.027-3.04 9.199-2.359.703-4.546 1.836-6.554 3.238-1.36-1.828-2.332-3.887-3.102-6.015l-.843.218c-.118 1.664-.317 3.375.242 4.985.281 1.175.898 2.332.789 3.57-.977 1.766-2.219 3.398-2.93 5.312-1.812-.39-3.336-1.492-4.89-2.43-.008 2.407 1.792 4.192 3.695 5.391-.547 2.383-.695 4.828-.649 7.274-1.68.437-3.41.617-5.132.765 1.335 1.461 3.312 1.493 5.14 1.598.524 2.16 1.18 4.29 1.781 6.426a67.497 67.497 0 0 0-2.843 2.445c1.406.578 2.726-.226 4.015-.695 1.645 1.668 3.68 2.867 5.825 3.777-.028.524-.082 1.574-.106 2.098a29.2 29.2 0 0 0 1.89-1.281 24.217 24.217 0 0 0 10.782.785c2.93-.59 5.281-2.504 7.953-3.707.086 2.39-1.64 4.23-3.156 5.855-3.446 3.496-8.477 4.922-13.281 4.922-3.868-.414-7.68-1.371-11.22-2.965-2.741-1.445-4.944-3.691-6.976-5.984-4.11-4.899-6.93-11.156-6.664-17.64C.47 26.522 8.141 12.71 20.007 5.52 24.825 2.445 30.423.906 36.017 0m55.453 71.355c-.489 2.688-.367 5.66 1.117 8.043 1.531 2.918 4.648 4.329 7.258 6.094.953.672 2.039 1.098 3.14 1.453a53.067 53.067 0 0 1-.804-3.218c-5.703-.266-8.785-8.61-4.36-12.368-.586-1.054-1.078-2.156-1.312-3.34-2.117-.042-4.195 1.434-5.04 3.336m7.134 4.106c-.211 1.918.156 5.059 2.648 5.047-.594-1.64-1.29-3.25-1.617-4.969-.258-.02-.774-.055-1.031-.078zm0 0" fill="#11100e"/></svg><svg width="130" height="130" viewBox="-1 -1 130 130" id="webpack" x="130" y="288" xmlns="http://www.w3.org/2000/svg"><path d="M18.523 37.016C33.695 28.465 48.836 19.875 64 11.313c15.16 8.562 30.305 17.152 45.469 25.703.547.32 1.336.664 1.164 1.46 0 17.313.008 34.63-.008 51.938C95.07 99.176 79.535 107.98 64 116.774c-15.535-8.794-31.07-17.598-46.625-26.36-.016-17.309-.008-34.625-.008-51.937-.172-.797.613-1.137 1.156-1.461m36.383-14.11c-9.601 5.407-19.164 10.864-28.773 16.239-.434.285-1.07.511-.906 1.156 2.312 1.582 4.851 2.789 7.242 4.261 1.832.989 3.515 2.32 5.539 2.907 1.328-.336 2.5-1.086 3.687-1.742 6.813-3.887 13.805-7.47 20.57-11.43.13-5.102.047-10.211.036-15.317-2.625.997-4.95 2.582-7.395 3.926m10.703-3.96c-.093 5.128-.18 10.269.032 15.394 3.242 2.012 6.68 3.68 9.992 5.57 4.805 2.5 9.383 5.442 14.312 7.676 4.461-2.36 8.825-4.93 13.125-7.57-11.218-6.547-22.617-12.782-33.875-19.258-1.156-.68-2.367-1.266-3.586-1.813M41.4 49.602c2.218 1.515 4.609 2.734 6.913 4.097 5.223 2.961 10.344 6.106 15.641 8.934 7.567-4.258 15.102-8.586 22.555-13.031-7.485-4.164-15-8.29-22.524-12.399-7.59 4.016-15.101 8.188-22.586 12.399m-18.273-6.594c-.188 3.492-.05 7-.078 10.492.043 10.855-.11 21.715.062 32.563 2.48-1.055 4.73-2.547 7.067-3.876 2.097-1.238 4.304-2.296 6.262-3.761.21-5.973-.028-11.95.062-17.926-.016-3.285.16-6.578-.11-9.86a227.675 227.675 0 0 0-13.265-7.632m68.367 7.597c-.281 2.458-.156 4.93-.152 7.395.086 6.813-.176 13.625.11 20.43 2.081 1.55 4.417 2.687 6.644 3.996 2.21 1.246 4.316 2.707 6.707 3.61.035-14.333.011-28.669.004-43-4.563 2.276-8.946 4.933-13.313 7.57M39.73 52.538c-.03 7.496.028 14.992-.027 22.492.067.672-.125 1.446.242 2.059.766.605 1.649 1.027 2.5 1.504 6.64 3.57 13.188 7.312 19.844 10.844.035-7.938 0-15.876.023-23.813a38.79 38.79 0 0 0-3.03-1.89c-6.552-3.672-12.977-7.57-19.552-11.196m43.239 2.91C77.195 58.855 71.3 62.051 65.594 65.57c-.02 7.953-.016 15.91 0 23.868 7.523-4.118 15.082-8.188 22.539-12.43 0-8.125.082-16.25-.047-24.375-1.766.832-3.441 1.828-5.117 2.816M25.855 88.547c1.59 1.164 3.317 2.125 5.043 3.058 8.313 4.692 16.61 9.403 24.922 14.09 2.13 1.172 4.14 2.594 6.47 3.36.038-5.282.1-10.563-.032-15.84-3.988-2.403-8.172-4.473-12.219-6.785-3.555-1.88-6.988-3.993-10.61-5.743a225.458 225.458 0 0 0-13.574 7.86m60.09-6.637c-6.703 3.848-13.586 7.39-20.28 11.262-.267 5.305-.134 10.625-.06 15.933.918-.402 1.84-.804 2.723-1.285 8.914-5.11 17.883-10.12 26.817-15.203 2.324-1.332 4.738-2.527 6.933-4.082-4.504-2.695-9.016-5.394-13.664-7.847-.828.39-1.664.777-2.469 1.222zm0 0" fill="#fff"/><path d="M54.906 22.906c2.446-1.343 4.77-2.93 7.395-3.926.011 5.106.094 10.215-.035 15.317-6.766 3.96-13.758 7.543-20.57 11.43-1.188.656-2.36 1.406-3.688 1.742-2.024-.586-3.707-1.918-5.54-2.907-2.39-1.472-4.929-2.68-7.241-4.261-.165-.645.472-.871.906-1.156 9.61-5.375 19.172-10.833 28.773-16.239zm0 0M65.61 18.945c1.218.547 2.43 1.133 3.585 1.813 11.258 6.476 22.657 12.71 33.875 19.258-4.3 2.64-8.664 5.21-13.125 7.57-4.93-2.234-9.507-5.176-14.312-7.676-3.313-1.89-6.75-3.558-9.992-5.57-.211-5.125-.125-10.266-.032-15.395zm0 0M23.125 43.008c4.508 2.39 8.93 4.945 13.266 7.633.27 3.28.093 6.574.109 9.859-.09 5.977.148 11.953-.063 17.926-1.957 1.465-4.164 2.523-6.261 3.761-2.336 1.329-4.586 2.82-7.067 3.876-.172-10.848-.02-21.708-.062-32.563.027-3.492-.11-7 .078-10.492zm0 0M91.492 50.605c4.367-2.636 8.75-5.292 13.313-7.57.007 14.332.03 28.668-.004 43-2.39-.902-4.496-2.363-6.707-3.61-2.227-1.308-4.563-2.445-6.645-3.995-.285-6.805-.023-13.618-.11-20.43-.003-2.465-.128-4.938.153-7.395zm0 0M25.855 88.547a225.458 225.458 0 0 1 13.575-7.86c3.62 1.75 7.054 3.864 10.61 5.743 4.046 2.312 8.23 4.382 12.218 6.785.133 5.277.07 10.558.031 15.84-2.328-.766-4.34-2.188-6.469-3.36-8.312-4.687-16.61-9.398-24.922-14.09-1.726-.933-3.453-1.894-5.043-3.058zm0 0M85.945 81.91c.805-.445 1.64-.832 2.47-1.222 4.647 2.453 9.16 5.152 13.663 7.847-2.195 1.555-4.61 2.75-6.933 4.082-8.934 5.082-17.903 10.094-26.817 15.203-.883.48-1.805.883-2.723 1.285-.074-5.308-.207-10.628.06-15.933 6.694-3.871 13.577-7.414 20.28-11.262zm0 0" fill="#8ed5fa"/><path d="M41.398 49.602c7.485-4.211 14.997-8.383 22.586-12.399 7.524 4.11 15.04 8.234 22.524 12.399-7.453 4.445-14.988 8.773-22.555 13.03-5.297-2.827-10.418-5.972-15.64-8.933-2.305-1.363-4.696-2.582-6.915-4.097zm0 0M39.73 52.54c6.575 3.624 13 7.523 19.551 11.194a38.79 38.79 0 0 1 3.032 1.891c-.024 7.938.011 15.875-.024 23.813-6.656-3.532-13.203-7.274-19.844-10.844-.851-.477-1.734-.899-2.5-1.504-.367-.613-.175-1.387-.242-2.059.055-7.5-.004-14.996.027-22.492zm0 0M82.969 55.45c1.676-.99 3.351-1.985 5.117-2.817.129 8.125.047 16.25.047 24.375-7.457 4.242-15.016 8.312-22.54 12.43-.015-7.958-.019-15.915 0-23.868 5.708-3.52 11.602-6.715 17.376-10.12zm0 0" fill="#1c78c0"/></svg></svg>